
<svg xmlns="http://www.w3.org/2000/svg" version="1.1" xmlns:xlink="http://www.w3.org/1999/xlink" preserveAspectRatio="none" x="0px" y="0px" width="360px" height="290px" viewBox="0 0 360 290">
<defs>
<g id="feather_0_Layer0_0_FILL">
<path fill="#FFFFFF" stroke="none" d="
M 327.65 73.2
Q 343.65 53 352.2 33.4 328.9 47.2 317 54.75 307.05 61.05 303.9 63.05 303.95 62.95 319.45 44.85 334.95 26.7 353.95 6.95 372.95 -12.85 297.5 23.9 222 60.6 185.2 95.9 205.45 56.95 201.45 58.7 197.4 60.4 181.65 72.7 165.85 85 154.45 97.75 143 110.45 132 121.15 128.2 124.2 130.65 112.25 133.1 100.2 137.65 87.1 142.2 74 131.55 85.95 120.85 97.9 105.1 121.1 95.75 134.85 86.4 144.8 86.7 139.65 88.3 122.05 89.9 104.4 78.65 131.95 67.4 159.5 61.05 174.55 55.05 188.75 51.1 202.35 47 216.4 47 223.3
L 47 234.95
Q 52.8 229.95 67 218.8 84.4 205 90 201.4
L 239.3 100.4
Q 115.15 195.6 85.35 217.65 65.7 232.1 47 245.6 37.25 252.65 27.75 259.45 0 279.2 0 285.45 0 286.4 0.25 287.65
L 2.5 287.9
Q 4.65 287.9 12.85 283.65 24.6 277.55 39.65 266.5 60.75 251 72.4 246.35 75.8 245 82.9 242.9 90.3 240.7 110.65 233.9 130.95 227.05 161.2 214.75 191.45 202.45 198 195.4 181.5 195.9 179.5 195.9 178.55 195.9 174.25 196.1 169.3 196.35 165.45 196.6 183.35 188.3 217.15 175.45 275.85 152.4 267.35 152.25 258.8 152.1 245.25 153.65 231.65 155.15 226.2 153.45 237.05 148.1 273.75 130.55 329.7 104.3 317.35 105.6 305 106.9 302.5 106.9 300.4 106.9 295.1 107.4 289.5 107.9 287.95 107.95 311.65 93.4 327.65 73.2 Z"/>
</g>
</defs>

<g transform="matrix( 1, 0, 0, 1, 1.15,1.5) ">
<g transform="matrix( 1, 0, 0, 1, 0,0) ">
<use xlink:href="#feather_0_Layer0_0_FILL"/>
</g>
</g>
</svg>
