<?xml version="1.0" encoding="iso-8859-1"?>
<!-- Generator: Adobe Illustrator 19.0.0, SVG Export Plug-In . SVG Version: 6.00 Build 0)  -->
<svg version="1.1" id="Capa_1" xmlns="http://www.w3.org/2000/svg" xmlns:xlink="http://www.w3.org/1999/xlink" x="0px" y="0px"
	 viewBox="0 0 490 490" style="enable-background:new 0 0 490 490;" xml:space="preserve">
<polygon points="184.634,383.018 245.268,345.122 305.381,383.646 282.444,317.868 340.506,270.647 268.189,269.162 
	244.395,200.275 222.209,266.329 149.51,270.034 208.046,313.274 "/>
<path d="M414.818,30.623h20.007V0H119.346C83.9,0,55.053,28.893,55.053,64.416v342.826c0,28.969,8.008,51.079,23.764,65.656
	C95.659,488.453,115.503,490,122.286,490c1.286,0,2.098-0.046,2.343-0.077h310.319V98.208h-20.884
	C408.556,91.077,395.651,68.483,414.818,30.623z M119.346,30.623H381.33c-11.123,29.104-7.975,51.892-1.846,67.585H119.346
	c-18.573,0-33.67-15.159-33.67-33.793C85.676,45.782,100.773,30.623,119.346,30.623z M404.34,459.3l-280.906,0.046
	c-0.138-0.015-13.535,0.597-23.825-8.927c-9.233-8.544-13.934-23.09-13.934-43.179V119.277c9.799,6.048,21.344,9.554,33.67,9.554
	H404.34V459.3z"/>
<g>
</g>
<g>
</g>
<g>
</g>
<g>
</g>
<g>
</g>
<g>
</g>
<g>
</g>
<g>
</g>
<g>
</g>
<g>
</g>
<g>
</g>
<g>
</g>
<g>
</g>
<g>
</g>
<g>
</g>
</svg>
