
<svg xmlns="http://www.w3.org/2000/svg" version="1.1" xmlns:xlink="http://www.w3.org/1999/xlink" preserveAspectRatio="none" x="0px" y="0px" width="500px" height="70px" viewBox="0 0 500 70">
<defs>
<g id="logo_0_Layer0_0_FILL">
<path fill="#FFFFFF" stroke="none" d="
M 4.7 1.15
L 0 1.15 0 68.85 32.1 68.85 32.1 64.6 4.7 64.6 4.7 1.15
M 76.65 1.15
L 44.7 1.15 44.7 68.85 78.2 68.85 78.2 64.6 49.4 64.6 49.4 36.8 74.7 36.8 74.7 32.55 49.4 32.55 49.4 5.45 76.65 5.45 76.65 1.15
M 141.55 3.6
Q 133.1 0 124.1 0 108.55 0 99.25 10.3 89.95 20.6 89.95 35.95 89.95 51.2 98.55 60.6 107.2 70 121.15 70 132.4 70 142.95 64.1
L 142.95 35.2 122.1 35.2 122.1 39.45 138.25 39.45 138.25 61.75
Q 131.3 65.7 122.05 65.7 109.55 65.7 102.2 57.65 94.8 49.5 94.8 35.25 94.8 21.7 102.7 13 110.5 4.25 123.4 4.25 132.3 4.25 141.55 8.7
L 141.55 3.6
M 190.7 5.45
L 190.7 1.15 158.75 1.15 158.75 68.85 192.25 68.85 192.25 64.6 163.45 64.6 163.45 36.8 188.75 36.8 188.75 32.55 163.45 32.55 163.45 5.45 190.7 5.45
M 259.25 1.15
L 254.5 1.15 254.5 54.05
Q 254.5 56.4 254.75 59.7
L 254.5 59.7
Q 252.95 57.15 251.6 55.4
L 211.2 1.15 207.55 1.15 207.55 68.85 212.3 68.85 212.3 12.85
Q 212.3 11.1 212.2 9.85
L 212.4 9.85 213 10.8
Q 213.95 12.45 215.2 14.1
L 255.9 68.85 259.25 68.85 259.25 1.15
M 319.8 9.55
Q 310.95 1.15 293.9 1.15
L 276.8 1.15 276.8 68.85 292.9 68.85
Q 309.65 68.85 319.2 59.2 328.7 49.5 328.7 34.05 328.7 17.95 319.8 9.55
M 293.2 5.45
Q 323.75 5.45 323.75 34.25 323.75 48.95 315.6 56.8 307.45 64.6 292.25 64.6
L 281.5 64.6 281.5 5.45 293.2 5.45
M 336.65 68.85
L 341.85 68.85 349.65 47.8 379.3 47.8 387.15 68.85 392.45 68.85 366.9 1.15 362.45 1.15 336.65 68.85
M 365.3 9.4
Q 365.65 10.75 366.15 12.2
L 377.7 43.5 351.35 43.5 362.85 12.1
Q 363.6 10.15 364.4 7.05
L 364.6 7.05
Q 364.95 8.2 365.3 9.4
M 442.4 18.75
Q 442.4 10.8 437.25 6 432.05 1.15 423 1.15
L 404 1.15 404 68.85 408.75 68.85 408.75 38.65 417.25 38.65
Q 421.45 38.65 424.3 40.8 427.1 42.85 429.9 49
L 439 68.85 444.35 68.85 434.2 47.25
Q 430.35 39.1 426.3 37.5
L 426.3 37.3
Q 433.9 35.9 438.15 31 442.4 26.05 442.4 18.75
M 433.4 9.1
Q 437.55 12.75 437.55 19.25 437.55 26.3 432.95 30.35 428.35 34.4 420.55 34.4
L 408.75 34.4 408.75 5.45 421.5 5.45
Q 429.25 5.45 433.4 9.1
M 500 1.15
L 494.9 1.15 478.25 33.85
Q 476.55 37 475.9 38.75
L 475.7 38.75
Q 474.4 35.45 473.55 33.75
L 457.65 1.15 452.35 1.15 473.25 43.2 473.25 68.85 477.95 68.85 477.95 43.1 500 1.15 Z"/>
</g>
</defs>

<g transform="matrix( 1, 0, 0, 1, 0,0.45) ">
<g transform="matrix( 1, 0, 0, 1, 0,0) ">
<use xlink:href="#logo_0_Layer0_0_FILL"/>
</g>
</g>
</svg>
