<svg xmlns="http://www.w3.org/2000/svg">


<style type="text/css">
    path:not(.svg-nocolor){fill:currentColor}
    use:not(.svg-nocolor):visited{color:currentColor}
    use:not(.svg-nocolor):hover{color:currentColor}
    use:not(.svg-nocolor):active{color:currentColor}
</style>


<defs>
<g id="iconCheck_0_Layer0_0_FILL">
<path fill="#FFFFFF" stroke="none" d="
M 64 6
L 54 0 26 46 8 28 0 36 28 64 64 6 Z"/>
</g>

<g id="icon_0_Layer1_0_FILL">
<path fill="#FFFFFF" fill-opacity="0.9882352941176471" stroke="none" d="
M 32 4.2
L 27.65 0 15.85 11.8 4.2 0.15 0 4.35 11.65 16 0 27.65 4.2 31.85 15.85 20.2 27.65 32 31.85 27.8 20.2 16.15 32 4.2 Z"/>
</g>

<g id="icon_0_Layer0_0_FILL">
<path fill="#FFFFFF" fill-opacity="0" stroke="none" d="
M 32 0
L 0 0 0 32 32 32 32 0 Z"/>
</g>

<g id="feather_0_Layer0_0_FILL">
<path fill="#FFFFFF" stroke="none" d="
M 327.65 73.2
Q 343.65 53 352.2 33.4 328.9 47.2 317 54.75 307.05 61.05 303.9 63.05 303.95 62.95 319.45 44.85 334.95 26.7 353.95 6.95 372.95 -12.85 297.5 23.9 222 60.6 185.2 95.9 205.45 56.95 201.45 58.7 197.4 60.4 181.65 72.7 165.85 85 154.45 97.75 143 110.45 132 121.15 128.2 124.2 130.65 112.25 133.1 100.2 137.65 87.1 142.2 74 131.55 85.95 120.85 97.9 105.1 121.1 95.75 134.85 86.4 144.8 86.7 139.65 88.3 122.05 89.9 104.4 78.65 131.95 67.4 159.5 61.05 174.55 55.05 188.75 51.1 202.35 47 216.4 47 223.3
L 47 234.95
Q 52.8 229.95 67 218.8 84.4 205 90 201.4
L 239.3 100.4
Q 115.15 195.6 85.35 217.65 65.7 232.1 47 245.6 37.25 252.65 27.75 259.45 0 279.2 0 285.45 0 286.4 0.25 287.65
L 2.5 287.9
Q 4.65 287.9 12.85 283.65 24.6 277.55 39.65 266.5 60.75 251 72.4 246.35 75.8 245 82.9 242.9 90.3 240.7 110.65 233.9 130.95 227.05 161.2 214.75 191.45 202.45 198 195.4 181.5 195.9 179.5 195.9 178.55 195.9 174.25 196.1 169.3 196.35 165.45 196.6 183.35 188.3 217.15 175.45 275.85 152.4 267.35 152.25 258.8 152.1 245.25 153.65 231.65 155.15 226.2 153.45 237.05 148.1 273.75 130.55 329.7 104.3 317.35 105.6 305 106.9 302.5 106.9 300.4 106.9 295.1 107.4 289.5 107.9 287.95 107.95 311.65 93.4 327.65 73.2 Z"/>
</g>

<g id="logo_0_Layer0_0_FILL">
<path fill="#FFFFFF" stroke="none" d="
M 4.7 1.15
L 0 1.15 0 68.85 32.1 68.85 32.1 64.6 4.7 64.6 4.7 1.15
M 76.65 1.15
L 44.7 1.15 44.7 68.85 78.2 68.85 78.2 64.6 49.4 64.6 49.4 36.8 74.7 36.8 74.7 32.55 49.4 32.55 49.4 5.45 76.65 5.45 76.65 1.15
M 141.55 3.6
Q 133.1 0 124.1 0 108.55 0 99.25 10.3 89.95 20.6 89.95 35.95 89.95 51.2 98.55 60.6 107.2 70 121.15 70 132.4 70 142.95 64.1
L 142.95 35.2 122.1 35.2 122.1 39.45 138.25 39.45 138.25 61.75
Q 131.3 65.7 122.05 65.7 109.55 65.7 102.2 57.65 94.8 49.5 94.8 35.25 94.8 21.7 102.7 13 110.5 4.25 123.4 4.25 132.3 4.25 141.55 8.7
L 141.55 3.6
M 190.7 5.45
L 190.7 1.15 158.75 1.15 158.75 68.85 192.25 68.85 192.25 64.6 163.45 64.6 163.45 36.8 188.75 36.8 188.75 32.55 163.45 32.55 163.45 5.45 190.7 5.45
M 259.25 1.15
L 254.5 1.15 254.5 54.05
Q 254.5 56.4 254.75 59.7
L 254.5 59.7
Q 252.95 57.15 251.6 55.4
L 211.2 1.15 207.55 1.15 207.55 68.85 212.3 68.85 212.3 12.85
Q 212.3 11.1 212.2 9.85
L 212.4 9.85 213 10.8
Q 213.95 12.45 215.2 14.1
L 255.9 68.85 259.25 68.85 259.25 1.15
M 319.8 9.55
Q 310.95 1.15 293.9 1.15
L 276.8 1.15 276.8 68.85 292.9 68.85
Q 309.65 68.85 319.2 59.2 328.7 49.5 328.7 34.05 328.7 17.95 319.8 9.55
M 293.2 5.45
Q 323.75 5.45 323.75 34.25 323.75 48.95 315.6 56.8 307.45 64.6 292.25 64.6
L 281.5 64.6 281.5 5.45 293.2 5.45
M 336.65 68.85
L 341.85 68.85 349.65 47.8 379.3 47.8 387.15 68.85 392.45 68.85 366.9 1.15 362.45 1.15 336.65 68.85
M 365.3 9.4
Q 365.65 10.75 366.15 12.2
L 377.7 43.5 351.35 43.5 362.85 12.1
Q 363.6 10.15 364.4 7.05
L 364.6 7.05
Q 364.95 8.2 365.3 9.4
M 442.4 18.75
Q 442.4 10.8 437.25 6 432.05 1.15 423 1.15
L 404 1.15 404 68.85 408.75 68.85 408.75 38.65 417.25 38.65
Q 421.45 38.65 424.3 40.8 427.1 42.85 429.9 49
L 439 68.85 444.35 68.85 434.2 47.25
Q 430.35 39.1 426.3 37.5
L 426.3 37.3
Q 433.9 35.9 438.15 31 442.4 26.05 442.4 18.75
M 433.4 9.1
Q 437.55 12.75 437.55 19.25 437.55 26.3 432.95 30.35 428.35 34.4 420.55 34.4
L 408.75 34.4 408.75 5.45 421.5 5.45
Q 429.25 5.45 433.4 9.1
M 500 1.15
L 494.9 1.15 478.25 33.85
Q 476.55 37 475.9 38.75
L 475.7 38.75
Q 474.4 35.45 473.55 33.75
L 457.65 1.15 452.35 1.15 473.25 43.2 473.25 68.85 477.95 68.85 477.95 43.1 500 1.15 Z"/>
</g>
</defs><symbol id="icon-add-file" viewBox="0 0 64 64">
  <g fill="#1D1D1B">
    <path d="m7.053,58.337c0,2.251 0.888,3.565 1.633,4.272 1.359,1.29 3.061,1.39 3.511,1.39 0.058,0 0.095-0.002 0.107-0.003h38.87c2.045,0 3.312-0.842 4.015-1.548 1.615-1.627 1.646-3.875 1.645-4.11v-45.285c0-0.265-0.054-0.527-0.156-0.776-0.104-0.249-0.253-0.474-0.441-0.662l-11-11.001c-0.188-0.188-0.412-0.337-0.663-0.44-0.248-0.103-0.512-0.157-0.775-0.157h-31.495c-2.038,0-3.249,0.89-3.905,1.636-1.503,1.708-1.407,4.095-1.346,4.765v51.919zm35.727-54.257h0.176l9.323,9.324-7.494,.002c0.004,0.012-0.865,0.012-1.426-0.52-0.384-0.366-0.579-0.993-0.579-1.864v-6.942zm-31.33,.256c0.056-0.064 0.224-0.256 0.854-0.256h26.413v6.942c0,2.526 1.003,4.009 1.842,4.809 1.6,1.521 3.644,1.639 4.195,1.639 0.069,0 0.114-0.002 0.133-0.003h7.883v40.857c-0.035,1.608-1.211,1.608-1.596,1.608l-38.978,.003c-0.006,0-0.456-0.03-0.714-0.275-0.318-0.302-0.366-0.958-0.366-1.323v-52.024c0-0.087-0.006-0.174-0.016-0.26-0.043-0.338-0.005-1.313 0.35-1.717z"/>
    <path d="m17.523,48.621h5.107v5.106c0,1.122 0.909,2.032 2.032,2.032 1.122,0 2.032-0.91 2.032-2.032v-5.106h5.107c1.123,0 2.031-0.91 2.031-2.032s-0.908-2.032-2.031-2.032h-5.107v-5.107c0-1.122-0.91-2.032-2.032-2.032-1.123,0-2.032,0.91-2.032,2.032v5.107h-5.107c-1.123,0-2.031,0.91-2.031,2.032s0.908,2.032 2.031,2.032z"/>
  </g>
</symbol>

<symbol id="icon-add" viewBox="0 0 42 42">
<polygon points="42,19 23,19 23,0 19,0 19,19 0,19 0,23 19,23 19,42 23,42 23,23 42,23 "/>
</symbol>

<symbol id="icon-arrow-down-right" viewBox="0 0 476.213 476.213">
<polygon points="36.213,461.213 461.213,461.213 461.213,36.213 "/>
<path d="M476.213,476.213H0L476.213,0V476.213z M72.427,446.213h373.787V72.427L72.427,446.213z"/>
<g>
</g>
<g>
</g>
<g>
</g>
<g>
</g>
<g>
</g>
<g>
</g>
<g>
</g>
<g>
</g>
<g>
</g>
<g>
</g>
<g>
</g>
<g>
</g>
<g>
</g>
<g>
</g>
<g>
</g>
</symbol>

<symbol id="icon-arrow-down" viewBox="0 0 451.847 451.847">
<g>
	<path d="M225.923,354.706c-8.098,0-16.195-3.092-22.369-9.263L9.27,151.157c-12.359-12.359-12.359-32.397,0-44.751
		c12.354-12.354,32.388-12.354,44.748,0l171.905,171.915l171.906-171.909c12.359-12.354,32.391-12.354,44.744,0
		c12.365,12.354,12.365,32.392,0,44.751L248.292,345.449C242.115,351.621,234.018,354.706,225.923,354.706z"/>
</g>
<g>
</g>
<g>
</g>
<g>
</g>
<g>
</g>
<g>
</g>
<g>
</g>
<g>
</g>
<g>
</g>
<g>
</g>
<g>
</g>
<g>
</g>
<g>
</g>
<g>
</g>
<g>
</g>
<g>
</g>
</symbol>

<symbol id="icon-arrow-next" viewBox="0 0 487.958 487.958">
<g>
	<path d="M483.058,215.613l-215.5-177.6c-4-3.3-9.6-4-14.3-1.8c-4.7,2.2-7.7,7-7.7,12.2v93.6c-104.6,3.8-176.5,40.7-213.9,109.8
		c-32.2,59.6-31.9,130.2-31.6,176.9c0,3.8,0,7.4,0,10.8c0,6.1,4.1,11.5,10.1,13.1c1.1,0.3,2.3,0.4,3.4,0.4c4.8,0,9.3-2.5,11.7-6.8
		c73-128.7,133.1-134.9,220.2-135.2v93.3c0,5.2,3,10,7.8,12.2s10.3,1.5,14.4-1.8l215.4-178.2c3.1-2.6,4.9-6.4,4.9-10.4
		S486.158,218.213,483.058,215.613z M272.558,375.613v-78.1c0-3.6-1.4-7-4-9.5c-2.5-2.5-6-4-9.5-4c-54.4,0-96.1,1.5-136.6,20.4
		c-35,16.3-65.3,44-95.2,87.5c1.2-39.7,6.4-87.1,28.1-127.2c34.4-63.6,101-95.1,203.7-96c7.4-0.1,13.4-6.1,13.4-13.5v-78.2
		l180.7,149.1L272.558,375.613z"/>
</g>
<g>
</g>
<g>
</g>
<g>
</g>
<g>
</g>
<g>
</g>
<g>
</g>
<g>
</g>
<g>
</g>
<g>
</g>
<g>
</g>
<g>
</g>
<g>
</g>
<g>
</g>
<g>
</g>
<g>
</g>
</symbol>

<symbol id="icon-arrow-up" viewBox="0 0 451.847 451.846">
<g>
	<path d="M248.292,106.406l194.281,194.29c12.365,12.359,12.365,32.391,0,44.744c-12.354,12.354-32.391,12.354-44.744,0
		L225.923,173.529L54.018,345.44c-12.36,12.354-32.395,12.354-44.748,0c-12.359-12.354-12.359-32.391,0-44.75L203.554,106.4
		c6.18-6.174,14.271-9.259,22.369-9.259C234.018,97.141,242.115,100.232,248.292,106.406z"/>
</g>
<g>
</g>
<g>
</g>
<g>
</g>
<g>
</g>
<g>
</g>
<g>
</g>
<g>
</g>
<g>
</g>
<g>
</g>
<g>
</g>
<g>
</g>
<g>
</g>
<g>
</g>
<g>
</g>
<g>
</g>
</symbol>

<symbol id="icon-arrow2-down" viewBox="0 0 404.308 404.309">
<g>
	<path d="M0,101.08h404.308L202.151,303.229L0,101.08z"/>
</g>
<g>
</g>
<g>
</g>
<g>
</g>
<g>
</g>
<g>
</g>
<g>
</g>
<g>
</g>
<g>
</g>
<g>
</g>
<g>
</g>
<g>
</g>
<g>
</g>
<g>
</g>
<g>
</g>
<g>
</g>
</symbol>

<symbol id="icon-arrow3-down-right" viewBox="0 0 476.213 476.213">
<path d="M0,476.213h476.213V0L0,476.213z M446.213,446.213H72.426L446.213,72.427V446.213z"/>
<g>
</g>
<g>
</g>
<g>
</g>
<g>
</g>
<g>
</g>
<g>
</g>
<g>
</g>
<g>
</g>
<g>
</g>
<g>
</g>
<g>
</g>
<g>
</g>
<g>
</g>
<g>
</g>
<g>
</g>
</symbol>

<symbol id="icon-arrow3-right" viewBox="0 0 38.083 38.083">
<g>
	<g>
		<path d="M6.655,36.904V1.177c0-0.461,0.269-0.879,0.687-1.07c0.419-0.191,0.911-0.121,1.26,0.178l22.416,17.568
			c0.258,0.223,0.406,0.545,0.41,0.885c0.004,0.326-0.143,0.663-0.396,0.889L8.616,37.784c-0.347,0.31-0.842,0.385-1.265,0.194
			C6.927,37.787,6.655,37.368,6.655,36.904z M9.01,3.744v30.535l19.449-15.52L9.01,3.744z"/>
	</g>
</g>
<g>
</g>
<g>
</g>
<g>
</g>
<g>
</g>
<g>
</g>
<g>
</g>
<g>
</g>
<g>
</g>
<g>
</g>
<g>
</g>
<g>
</g>
<g>
</g>
<g>
</g>
<g>
</g>
<g>
</g>
</symbol>

<symbol id="icon-back" viewBox="0 0 477.175 477.175">
<g>
	<path d="M145.188,238.575l215.5-215.5c5.3-5.3,5.3-13.8,0-19.1s-13.8-5.3-19.1,0l-225.1,225.1c-5.3,5.3-5.3,13.8,0,19.1l225.1,225
		c2.6,2.6,6.1,4,9.5,4s6.9-1.3,9.5-4c5.3-5.3,5.3-13.8,0-19.1L145.188,238.575z"/>
</g>
<g>
</g>
<g>
</g>
<g>
</g>
<g>
</g>
<g>
</g>
<g>
</g>
<g>
</g>
<g>
</g>
<g>
</g>
<g>
</g>
<g>
</g>
<g>
</g>
<g>
</g>
<g>
</g>
<g>
</g>
</symbol>

<symbol id="icon-book-fav" viewBox="0 0 490 490">
<polygon points="184.634,383.018 245.268,345.122 305.381,383.646 282.444,317.868 340.506,270.647 268.189,269.162 
	244.395,200.275 222.209,266.329 149.51,270.034 208.046,313.274 "/>
<path d="M414.818,30.623h20.007V0H119.346C83.9,0,55.053,28.893,55.053,64.416v342.826c0,28.969,8.008,51.079,23.764,65.656
	C95.659,488.453,115.503,490,122.286,490c1.286,0,2.098-0.046,2.343-0.077h310.319V98.208h-20.884
	C408.556,91.077,395.651,68.483,414.818,30.623z M119.346,30.623H381.33c-11.123,29.104-7.975,51.892-1.846,67.585H119.346
	c-18.573,0-33.67-15.159-33.67-33.793C85.676,45.782,100.773,30.623,119.346,30.623z M404.34,459.3l-280.906,0.046
	c-0.138-0.015-13.535,0.597-23.825-8.927c-9.233-8.544-13.934-23.09-13.934-43.179V119.277c9.799,6.048,21.344,9.554,33.67,9.554
	H404.34V459.3z"/>
<g>
</g>
<g>
</g>
<g>
</g>
<g>
</g>
<g>
</g>
<g>
</g>
<g>
</g>
<g>
</g>
<g>
</g>
<g>
</g>
<g>
</g>
<g>
</g>
<g>
</g>
<g>
</g>
<g>
</g>
</symbol>

<symbol id="icon-book-marked" viewBox="0 0 75.889 75.889">
<g>
	<path d="M10.046,65.9c0.002,0.183,0.005,0.318,0.007,0.408c0.001,0.053-0.009,0.104-0.012,0.158
		c0.122,3.01,2.603,5.422,5.642,5.422h50.186v-5.527c0-1.104,0.896-2,2-2c1.104,0,2,0.896,2,2v7.527c0,1.104-0.896,2-2,2H15.381
		c-0.104,0-0.204-0.015-0.305-0.031c-5.04-0.314-9.047-4.504-9.047-9.623c0-0.117,0.014-0.229,0.018-0.346
		c-0.062-5.939,0-51.112,0.007-56.027c-0.008-0.07-0.021-0.137-0.021-0.208c0-5.323,4.33-9.653,9.653-9.653h0.017v46.468
		c0,0.536,0.179,1.025,0.465,1.271c0.286,0.246,0.63,0.205,0.891-0.104l7.033-8.304l6.66,8.283c0.151,0.188,0.332,0.285,0.514,0.285
		c0.132,0,0.264-0.051,0.385-0.152c0.291-0.243,0.475-0.738,0.475-1.28V0h35.253h0.488c1.104,0,2,0.896,2,2v56.527
		c0,1.104-0.896,2-2,2c-0.012,0-0.021-0.004-0.033-0.004c-0.147,0.035-0.301,0.059-0.458,0.059H15.683
		C12.679,60.582,10.221,62.939,10.046,65.9z"/>
</g>
<g>
</g>
<g>
</g>
<g>
</g>
<g>
</g>
<g>
</g>
<g>
</g>
<g>
</g>
<g>
</g>
<g>
</g>
<g>
</g>
<g>
</g>
<g>
</g>
<g>
</g>
<g>
</g>
<g>
</g>
</symbol>

<symbol id="icon-book" viewBox="0 0 459.319 459.319">
<g>
	<path d="M94.924,366.674h312.874c0.958,0,1.886-0.136,2.778-0.349c0.071,0,0.13,0.012,0.201,0.012
		c6.679,0,12.105-5.42,12.105-12.104V12.105C422.883,5.423,417.456,0,410.777,0h-2.955H114.284H94.941
		c-32.22,0-58.428,26.214-58.428,58.425c0,0.432,0.085,0.842,0.127,1.259c-0.042,29.755-0.411,303.166-0.042,339.109
		c-0.023,0.703-0.109,1.389-0.109,2.099c0,30.973,24.252,56.329,54.757,58.245c0.612,0.094,1.212,0.183,1.847,0.183h317.683
		c6.679,0,12.105-5.42,12.105-12.105v-45.565c0-6.68-5.427-12.105-12.105-12.105s-12.105,5.426-12.105,12.105v33.461H94.924
		c-18.395,0-33.411-14.605-34.149-32.817c0.018-0.325,0.077-0.632,0.071-0.963c-0.012-0.532-0.03-1.359-0.042-2.459
		C61.862,380.948,76.739,366.674,94.924,366.674z M103.178,58.425c0-6.682,5.423-12.105,12.105-12.105s12.105,5.423,12.105,12.105
		V304.31c0,6.679-5.423,12.105-12.105,12.105s-12.105-5.427-12.105-12.105V58.425z"/>
</g>
<g>
</g>
<g>
</g>
<g>
</g>
<g>
</g>
<g>
</g>
<g>
</g>
<g>
</g>
<g>
</g>
<g>
</g>
<g>
</g>
<g>
</g>
<g>
</g>
<g>
</g>
<g>
</g>
<g>
</g>
</symbol>

<symbol id="icon-bookmark" viewBox="0 0 469.513 469.513">
<g>
	<g>
		<path d="M370.757,0h-272c-9.35,0-17,7.65-17,17v435.483c0,7.083,4.25,13.317,10.767,15.867c6.517,2.55,13.883,0.85,18.7-4.533
			L238.157,324.7l119.85,138.833c3.4,3.683,7.933,5.95,12.75,5.95c1.983,0,3.967-0.283,5.95-1.133
			c6.517-2.55,11.05-8.783,11.05-15.867V17C387.757,7.65,380.107,0,370.757,0z M353.757,406.867L251.473,288.15
			c-3.117-3.683-7.65-5.95-12.75-5.95c-4.817,0-9.633,1.983-12.75,5.667L115.757,408.85V34h238V406.867z"/>
	</g>
</g>
<g>
</g>
<g>
</g>
<g>
</g>
<g>
</g>
<g>
</g>
<g>
</g>
<g>
</g>
<g>
</g>
<g>
</g>
<g>
</g>
<g>
</g>
<g>
</g>
<g>
</g>
<g>
</g>
<g>
</g>
</symbol>

<symbol id="icon-camera" viewBox="0 0 100 100">
<g>
	<g>
		<path style="fill:#030104;" d="M50,40c-8.285,0-15,6.718-15,15c0,8.285,6.715,15,15,15c8.283,0,15-6.715,15-15
			C65,46.718,58.283,40,50,40z M90,25H78c-1.65,0-3.428-1.28-3.949-2.846l-3.102-9.309C70.426,11.28,68.65,10,67,10H33
			c-1.65,0-3.428,1.28-3.949,2.846l-3.102,9.309C25.426,23.72,23.65,25,22,25H10C4.5,25,0,29.5,0,35v45c0,5.5,4.5,10,10,10h80
			c5.5,0,10-4.5,10-10V35C100,29.5,95.5,25,90,25z M50,80c-13.807,0-25-11.193-25-25c0-13.806,11.193-25,25-25
			c13.805,0,25,11.194,25,25C75,68.807,63.805,80,50,80z M86.5,41.993c-1.932,0-3.5-1.566-3.5-3.5c0-1.932,1.568-3.5,3.5-3.5
			c1.934,0,3.5,1.568,3.5,3.5C90,40.427,88.433,41.993,86.5,41.993z"/>
	</g>
</g>
<g>
</g>
<g>
</g>
<g>
</g>
<g>
</g>
<g>
</g>
<g>
</g>
<g>
</g>
<g>
</g>
<g>
</g>
<g>
</g>
<g>
</g>
<g>
</g>
<g>
</g>
<g>
</g>
<g>
</g>
</symbol>

<symbol id="icon-cancel" viewBox="0 0 475.2 475.2">
<g>
	<g>
		<path d="M405.6,69.6C360.7,24.7,301.1,0,237.6,0s-123.1,24.7-168,69.6S0,174.1,0,237.6s24.7,123.1,69.6,168s104.5,69.6,168,69.6
			s123.1-24.7,168-69.6s69.6-104.5,69.6-168S450.5,114.5,405.6,69.6z M386.5,386.5c-39.8,39.8-92.7,61.7-148.9,61.7
			s-109.1-21.9-148.9-61.7c-82.1-82.1-82.1-215.7,0-297.8C128.5,48.9,181.4,27,237.6,27s109.1,21.9,148.9,61.7
			C468.6,170.8,468.6,304.4,386.5,386.5z"/>
		<path d="M342.3,132.9c-5.3-5.3-13.8-5.3-19.1,0l-85.6,85.6L152,132.9c-5.3-5.3-13.8-5.3-19.1,0c-5.3,5.3-5.3,13.8,0,19.1
			l85.6,85.6l-85.6,85.6c-5.3,5.3-5.3,13.8,0,19.1c2.6,2.6,6.1,4,9.5,4s6.9-1.3,9.5-4l85.6-85.6l85.6,85.6c2.6,2.6,6.1,4,9.5,4
			c3.5,0,6.9-1.3,9.5-4c5.3-5.3,5.3-13.8,0-19.1l-85.4-85.6l85.6-85.6C347.6,146.7,347.6,138.2,342.3,132.9z"/>
	</g>
</g>
<g>
</g>
<g>
</g>
<g>
</g>
<g>
</g>
<g>
</g>
<g>
</g>
<g>
</g>
<g>
</g>
<g>
</g>
<g>
</g>
<g>
</g>
<g>
</g>
<g>
</g>
<g>
</g>
<g>
</g>
</symbol>

<symbol id="icon-chat" viewBox="0 0 477.6 477.6">
<g>
	<g>
		<path d="M407.583,70c-45.1-45.1-105-70-168.8-70s-123.7,24.9-168.8,70c-87,87-93.3,226-15.8,320.2c-10.7,21.9-23.3,36.5-37.6,43.5
			c-8.7,4.3-13.6,13.7-12.2,23.3c1.5,9.7,8.9,17.2,18.6,18.7c5.3,0.8,11,1.3,16.9,1.3l0,0c29.3,0,60.1-10.1,85.8-27.8
			c34.6,18.6,73.5,28.4,113.1,28.4c63.8,0,123.7-24.8,168.8-69.9s69.9-105.1,69.9-168.8S452.683,115.1,407.583,70z M388.483,388.5
			c-40,40-93.2,62-149.7,62c-37.8,0-74.9-10.1-107.2-29.1c-2.1-1.2-4.5-1.9-6.8-1.9c-2.9,0-5.9,1-8.3,2.8
			c-30.6,23.7-61.4,27.2-74.9,27.5c16.1-12,29.6-30.6,40.9-56.5c2.1-4.8,1.2-10.4-2.3-14.4c-74-83.6-70.1-211,8.9-290
			c40-40,93.2-62,149.7-62s109.7,22,149.7,62C471.083,171.6,471.083,306,388.483,388.5z"/>
		<path d="M338.783,160h-200c-7.5,0-13.5,6-13.5,13.5s6,13.5,13.5,13.5h200c7.5,0,13.5-6,13.5-13.5S346.183,160,338.783,160z"/>
		<path d="M338.783,225.3h-200c-7.5,0-13.5,6-13.5,13.5s6,13.5,13.5,13.5h200c7.5,0,13.5-6,13.5-13.5S346.183,225.3,338.783,225.3z"/>
		<path d="M338.783,290.6h-200c-7.5,0-13.5,6-13.5,13.5s6,13.5,13.5,13.5h200c7.5,0,13.5-6,13.5-13.5S346.183,290.6,338.783,290.6z"/>
	</g>
</g>
<g>
</g>
<g>
</g>
<g>
</g>
<g>
</g>
<g>
</g>
<g>
</g>
<g>
</g>
<g>
</g>
<g>
</g>
<g>
</g>
<g>
</g>
<g>
</g>
<g>
</g>
<g>
</g>
<g>
</g>
</symbol>

<symbol id="icon-check" viewBox="0 0 64 64">


<g transform="matrix( 1, 0, 0, 1, 0,0) ">
<g transform="matrix( 1, 0, 0, 1, 0,0) ">
<use xlink:href="#iconCheck_0_Layer0_0_FILL"/>
</g>
</g>
</symbol>

<symbol id="icon-clock" viewBox="0 0 512 512">
<g>
	<g>
		<path d="M256,0C114.497,0,0,114.507,0,256c0,141.503,114.508,256,256,256c141.503,0,256-114.507,256-256
			C512,114.497,397.492,0,256,0z M256,472c-119.393,0-216-96.615-216-216c0-119.393,96.616-216,216-216
			c119.393,0,216,96.615,216,216C472,375.393,375.384,472,256,472z"/>
	</g>
</g>
<g>
	<g>
		<path d="M366.29,298.85L276,244.676V96c0-11.046-8.954-20-20-20s-20,8.954-20,20v160c0,7.025,3.686,13.535,9.71,17.15l100,60
			c9.471,5.683,21.758,2.611,27.439-6.86C378.833,316.818,375.762,304.533,366.29,298.85z"/>
	</g>
</g>
<g>
</g>
<g>
</g>
<g>
</g>
<g>
</g>
<g>
</g>
<g>
</g>
<g>
</g>
<g>
</g>
<g>
</g>
<g>
</g>
<g>
</g>
<g>
</g>
<g>
</g>
<g>
</g>
<g>
</g>
</symbol>

<symbol id="icon-close" viewBox="0 0 32 32">


<g transform="matrix( 1, 0, 0, 1, 0,0) ">
<g transform="matrix( 1, 0, 0, 1, 0,0) ">
<use xlink:href="#icon_0_Layer1_0_FILL"/>
</g>

<g transform="matrix( 1, 0, 0, 1, 0,0) ">
<use xlink:href="#icon_0_Layer0_0_FILL"/>
</g>
</g>
</symbol>

<symbol id="icon-download" viewBox="0 0 471.2 471.2">
<g>
	<g>
		<path d="M457.7,230.15c-7.5,0-13.5,6-13.5,13.5v122.8c0,33.4-27.2,60.5-60.5,60.5H87.5c-33.4,0-60.5-27.2-60.5-60.5v-124.8
			c0-7.5-6-13.5-13.5-13.5s-13.5,6-13.5,13.5v124.8c0,48.3,39.3,87.5,87.5,87.5h296.2c48.3,0,87.5-39.3,87.5-87.5v-122.8
			C471.2,236.25,465.2,230.15,457.7,230.15z"/>
		<path d="M226.1,346.75c2.6,2.6,6.1,4,9.5,4s6.9-1.3,9.5-4l85.8-85.8c5.3-5.3,5.3-13.8,0-19.1c-5.3-5.3-13.8-5.3-19.1,0l-62.7,62.8
			V30.75c0-7.5-6-13.5-13.5-13.5s-13.5,6-13.5,13.5v273.9l-62.8-62.8c-5.3-5.3-13.8-5.3-19.1,0c-5.3,5.3-5.3,13.8,0,19.1
			L226.1,346.75z"/>
	</g>
</g>
<g>
</g>
<g>
</g>
<g>
</g>
<g>
</g>
<g>
</g>
<g>
</g>
<g>
</g>
<g>
</g>
<g>
</g>
<g>
</g>
<g>
</g>
<g>
</g>
<g>
</g>
<g>
</g>
<g>
</g>
</symbol>

<symbol id="icon-email" viewBox="0 0 483.3 483.3">
<g>
	<g>
		<path d="M424.3,57.75H59.1c-32.6,0-59.1,26.5-59.1,59.1v249.6c0,32.6,26.5,59.1,59.1,59.1h365.1c32.6,0,59.1-26.5,59.1-59.1
			v-249.5C483.4,84.35,456.9,57.75,424.3,57.75z M456.4,366.45c0,17.7-14.4,32.1-32.1,32.1H59.1c-17.7,0-32.1-14.4-32.1-32.1v-249.5
			c0-17.7,14.4-32.1,32.1-32.1h365.1c17.7,0,32.1,14.4,32.1,32.1v249.5H456.4z"/>
		<path d="M304.8,238.55l118.2-106c5.5-5,6-13.5,1-19.1c-5-5.5-13.5-6-19.1-1l-163,146.3l-31.8-28.4c-0.1-0.1-0.2-0.2-0.2-0.3
			c-0.7-0.7-1.4-1.3-2.2-1.9L78.3,112.35c-5.6-5-14.1-4.5-19.1,1.1c-5,5.6-4.5,14.1,1.1,19.1l119.6,106.9L60.8,350.95
			c-5.4,5.1-5.7,13.6-0.6,19.1c2.7,2.8,6.3,4.3,9.9,4.3c3.3,0,6.6-1.2,9.2-3.6l120.9-113.1l32.8,29.3c2.6,2.3,5.8,3.4,9,3.4
			c3.2,0,6.5-1.2,9-3.5l33.7-30.2l120.2,114.2c2.6,2.5,6,3.7,9.3,3.7c3.6,0,7.1-1.4,9.8-4.2c5.1-5.4,4.9-14-0.5-19.1L304.8,238.55z"/>
	</g>
</g>
<g>
</g>
<g>
</g>
<g>
</g>
<g>
</g>
<g>
</g>
<g>
</g>
<g>
</g>
<g>
</g>
<g>
</g>
<g>
</g>
<g>
</g>
<g>
</g>
<g>
</g>
<g>
</g>
<g>
</g>
</symbol>

<symbol id="icon-feather" viewBox="0 0 360 290">


<g transform="matrix( 1, 0, 0, 1, 1.15,1.5) ">
<g transform="matrix( 1, 0, 0, 1, 0,0) ">
<use xlink:href="#feather_0_Layer0_0_FILL"/>
</g>
</g>
</symbol>

<symbol id="icon-file" viewBox="0 0 49.356 49.356">
<g>
	<g>
		<path d="M7.97,49.356h33.417c1.103,0,2-0.897,2-2V11.701c0-0.843-0.46-1.857-1.093-2.411l-9.559-8.383
			C32.135,0.382,31.121,0,30.324,0H7.97c-1.103,0-2,0.897-2,2v45.355C5.97,48.459,6.866,49.356,7.97,49.356z M32.304,4.519
			l5.881,5.159h-5.882L32.304,4.519z M8.97,3h20.333v7.678c0,1.103,0.897,2,2,2h9.084v33.678H8.97V3L8.97,3z"/>
	</g>
</g>
</symbol>

<symbol id="icon-files" viewBox="0 0 957.599 957.6">
<g>
	<path d="M817.9,108.4h-28v687.901c0,45.699-37.2,82.898-82.899,82.898H423.3H197.7v25.5c0,29.201,23.7,52.9,52.9,52.9h283.6H817.8   c29.2,0,52.899-23.699,52.899-52.9V161.3C870.7,132.1,847.1,108.4,817.9,108.4z"/>
	<path d="M423.3,849.199h283.6c29.2,0,52.9-23.699,52.9-52.898V108.4V52.9c0-29.2-23.7-52.9-52.9-52.9H423.3H329v17.5   c0.199,1.8,0.3,3.7,0.3,5.6v115.3V168c0,41.1-33.4,74.5-74.5,74.5h-29.6H109.9c-1.5,0-3.1-0.1-4.6-0.2H86.9v554.001   c0,29.199,23.7,52.898,52.9,52.898h58H423.3L423.3,849.199z M434,669.4H249.1c-13.8,0-25-11.201-25-25c0-13.801,11.2-25,25-25h185   c13.8,0,25,11.199,25,25C459.1,658.199,447.8,669.4,434,669.4z M619,541.801H249.1c-13.8,0-25-11.201-25-25c0-13.801,11.2-25,25-25   H619c13.8,0,25,11.199,25,25C644,530.6,632.8,541.801,619,541.801z M249.1,356.3H619c13.8,0,25,11.2,25,25c0,13.8-11.2,25-25,25   H249.1c-13.8,0-25-11.2-25-25C224.1,367.5,235.3,356.3,249.1,356.3z"/>
	<path d="M109.9,212.5h144.9c0.1,0,0.3,0,0.4,0c24.2-0.2,43.8-19.8,44-44c0-0.1,0-0.3,0-0.4v-145c0-13.4-11-22.3-22.399-22.3   c-5.5,0-11,2-15.6,6.6L94.1,174.5C80.1,188.5,90,212.5,109.9,212.5z"/>
</g>
</symbol>

<symbol id="icon-flag" viewBox="0 0 464.551 464.551">
<g>
	<path d="M133.391,35.352c0,12.005-5.999,22.597-15.143,28.986v380.015c0,11.153-9.043,20.197-20.197,20.197
		c-11.157,0-20.2-9.044-20.2-20.197V64.333c-9.144-6.389-15.143-16.976-15.143-28.986C62.708,15.82,78.537,0,98.057,0
		C117.562,0.006,133.391,15.829,133.391,35.352z M134.23,63.121c0,52.18,0,104.354,0,156.528c101.79,37.587,165.83-37.586,267.613,0
		c0-52.18,0-104.354,0-156.528C300.06,25.534,236.02,100.71,134.23,63.121z"/>
</g>
<g>
</g>
<g>
</g>
<g>
</g>
<g>
</g>
<g>
</g>
<g>
</g>
<g>
</g>
<g>
</g>
<g>
</g>
<g>
</g>
<g>
</g>
<g>
</g>
<g>
</g>
<g>
</g>
<g>
</g>
</symbol>

<symbol id="icon-folder" viewBox="0 0 481.2 481.2">
<g>
	<path d="M403.9,97.85h-114c-27.7,0-50.3-22.5-50.3-50.3c0-7.5-6-13.5-13.5-13.5H77.3c-42.6,0-77.3,34.7-77.3,77.3v258.5
		c0,42.6,34.7,77.3,77.3,77.3h326.6c42.6,0,77.3-34.7,77.3-77.3v-194.8C481.2,132.45,446.5,97.85,403.9,97.85z M454.2,369.75
		c0,27.7-22.5,50.3-50.3,50.3H77.3c-27.7,0-50.3-22.5-50.3-50.3v-258.4c0-27.7,22.5-50.3,50.3-50.3h136.5
		c6.4,36.2,38.1,63.8,76.1,63.8h114c27.7,0,50.3,22.5,50.3,50.3L454.2,369.75L454.2,369.75z"/>
</g>
<g>
</g>
<g>
</g>
<g>
</g>
<g>
</g>
<g>
</g>
<g>
</g>
<g>
</g>
<g>
</g>
<g>
</g>
<g>
</g>
<g>
</g>
<g>
</g>
<g>
</g>
<g>
</g>
<g>
</g>
</symbol>

<symbol id="icon-gallery" viewBox="0 0 512.003 512.003">
<g>
	<g>
		<path d="M373.333,31.991H10.667C4.779,31.991,0,36.769,0,42.657v320c0,1.707,0.491,3.264,1.195,4.693
			c0.064,0.128,0.021,0.277,0.107,0.427c0.149,0.256,0.448,0.384,0.597,0.619c0.747,1.109,1.643,2.048,2.731,2.816
			c0.384,0.277,0.704,0.533,1.109,0.747c1.493,0.811,3.115,1.365,4.928,1.365h362.667c1.728,0,3.307-0.512,4.736-1.237
			c0.405-0.213,0.725-0.491,1.109-0.747c1.024-0.683,1.877-1.493,2.603-2.496c0.171-0.235,0.469-0.341,0.619-0.597
			c0.107-0.192,0.085-0.405,0.192-0.597c0.619-1.131,0.981-2.368,1.152-3.712c0.043-0.363,0.192-0.661,0.213-1.024
			c0-0.085,0.043-0.171,0.043-0.256v-320C384,36.769,379.221,31.991,373.333,31.991z M362.667,317.473l-97.131-194.24
			c-1.771-3.52-5.312-5.781-9.259-5.888c-4.032-0.192-7.595,1.963-9.557,5.376l-78.4,137.216l-54.123-54.165
			c-2.261-2.261-5.504-3.392-8.661-3.051c-3.2,0.341-6.101,2.133-7.829,4.843L21.333,326.348V53.324h341.333V317.473z"/>
	</g>
</g>
<g>
	<g>
		<circle cx="117.333" cy="127.991" r="53.333"/>
	</g>
</g>
<g>
	<g>
		<path d="M399.744,393.655c-3.221-3.435-8.277-4.395-12.501-2.347c-4.565,2.219-9.237,3.349-13.909,3.349H236.8
			c-4.864,0-9.109,3.285-10.325,8s0.896,9.643,5.141,12.011l115.2,64c1.643,0.917,3.413,1.344,5.163,1.344
			c3.669,0,7.232-1.899,9.237-5.291l39.915-68.437C403.499,402.231,402.923,397.089,399.744,393.655z"/>
	</g>
</g>
<g>
	<g>
		<path d="M507.243,204.449l-85.333-56.896c-3.285-2.176-7.509-2.368-10.944-0.533c-3.456,1.856-5.632,5.483-5.632,9.408v203.157
			c0,4.821,3.221,9.045,7.893,10.304c0.917,0.256,1.856,0.363,2.773,0.363c3.733,0,7.275-1.963,9.216-5.291l85.333-146.283
			C513.387,213.815,511.957,207.564,507.243,204.449z"/>
	</g>
</g>
<g>
</g>
<g>
</g>
<g>
</g>
<g>
</g>
<g>
</g>
<g>
</g>
<g>
</g>
<g>
</g>
<g>
</g>
<g>
</g>
<g>
</g>
<g>
</g>
<g>
</g>
<g>
</g>
<g>
</g>
</symbol>

<symbol id="icon-globe" viewBox="0 0 533.333 533.333">
<g>
	<path d="M455.229,78.105c50.367,50.367,78.104,117.333,78.104,188.563c0,71.229-27.739,138.194-78.104,188.561
		c-50.368,50.366-117.333,78.104-188.562,78.104c-71.229,0-138.195-27.738-188.562-78.104C27.738,404.862,0,337.896,0,266.668
		c0-71.229,27.736-138.196,78.104-188.563S195.438,0,266.667,0C337.896,0,404.861,27.738,455.229,78.105z M431.658,431.659
		c32.843-32.843,54.681-73.754,63.686-118.262c-7.019,10.331-13.732,14.165-17.888-8.961c-4.281-37.703-38.911-13.618-60.688-27.011
		c-22.919,15.447-74.43-30.032-65.676,21.263c13.507,23.137,72.921-30.964,43.307,17.99
		c-18.893,34.176-69.085,109.86-62.555,149.093c0.823,57.158-58.404,11.919-78.81-7.041
		c-13.727-37.979-4.678-104.362-40.572-122.962c-38.959-1.691-72.398-5.232-87.497-48.786c-9.086-31.161,9.669-77.549,43.062-84.71
		c48.88-30.711,66.341,35.965,112.183,37.205c14.233-14.893,53.029-19.628,56.246-36.328c-30.078-5.308,38.16-25.291-2.879-36.657
		c-22.642,2.663-37.229,23.476-25.193,41.124c-43.874,10.23-45.279-63.492-87.454-40.238c-1.072,36.765-68.865,11.919-23.456,4.464
		c15.602-6.816-25.448-26.57-3.271-22.98c10.894-0.592,47.569-13.444,37.644-22.084c20.421-12.677,37.583,30.359,57.572-0.98
		c14.431-24.097-6.052-28.546-24.141-16.332c-10.198-11.418,18.006-36.081,42.882-46.738c8.29-3.552,16.208-5.487,22.263-4.939
		c12.531,14.475,35.703,16.982,36.916-1.741c-31.031-14.861-65.247-22.712-100.672-22.712c-50.845,0-99.203,16.158-139.223,46.036
		c10.755,4.927,16.86,11.062,6.499,18.904c-8.05,23.987-40.713,56.186-69.387,51.627c-14.889,25.674-24.694,53.961-28.885,83.608
		c24.016,7.946,29.554,23.672,24.394,28.932c-12.237,10.671-19.759,25.797-23.633,42.355c7.817,47.832,30.298,91.914,65.245,126.862
		C145.746,475.729,204.34,500,266.667,500C328.992,500,387.587,475.729,431.658,431.659z"/>
</g>
<g>
</g>
<g>
</g>
<g>
</g>
<g>
</g>
<g>
</g>
<g>
</g>
<g>
</g>
<g>
</g>
<g>
</g>
<g>
</g>
<g>
</g>
<g>
</g>
<g>
</g>
<g>
</g>
<g>
</g>
</symbol>

<symbol id="icon-heart-empty" viewBox="0 0 455 455">
<path d="M326.632,10.346c-38.733,0-74.991,17.537-99.132,46.92c-24.141-29.384-60.398-46.92-99.132-46.92
	C57.586,10.346,0,67.931,0,138.714c0,55.426,33.05,119.535,98.23,190.546c50.161,54.647,104.728,96.959,120.257,108.626l9.01,6.769
	l9.01-6.768c15.529-11.667,70.098-53.978,120.26-108.625C421.949,258.251,455,194.141,455,138.714
	C455,67.931,397.414,10.346,326.632,10.346z M334.666,308.974c-41.259,44.948-85.648,81.283-107.169,98.029
	c-21.52-16.746-65.907-53.082-107.166-98.03C61.236,244.592,30,185.717,30,138.714c0-54.24,44.128-98.368,98.368-98.368
	c35.694,0,68.652,19.454,86.013,50.771l13.119,23.666l13.119-23.666c17.36-31.316,50.318-50.771,86.013-50.771
	c54.24,0,98.368,44.127,98.368,98.368C425,185.719,393.763,244.594,334.666,308.974z"/>
<g>
</g>
<g>
</g>
<g>
</g>
<g>
</g>
<g>
</g>
<g>
</g>
<g>
</g>
<g>
</g>
<g>
</g>
<g>
</g>
<g>
</g>
<g>
</g>
<g>
</g>
<g>
</g>
<g>
</g>
</symbol>

<symbol id="icon-heart" viewBox="0 0 455 455">
<path d="M326.632,10.346c-38.733,0-74.991,17.537-99.132,46.92c-24.141-29.383-60.399-46.92-99.132-46.92
	C57.586,10.346,0,67.931,0,138.714c0,55.426,33.049,119.535,98.23,190.546c50.162,54.649,104.729,96.96,120.257,108.626l9.01,6.769
	l9.009-6.768c15.53-11.667,70.099-53.979,120.26-108.625C421.95,258.251,455,194.141,455,138.714
	C455,67.931,397.414,10.346,326.632,10.346z"/>
<g>
</g>
<g>
</g>
<g>
</g>
<g>
</g>
<g>
</g>
<g>
</g>
<g>
</g>
<g>
</g>
<g>
</g>
<g>
</g>
<g>
</g>
<g>
</g>
<g>
</g>
<g>
</g>
<g>
</g>
</symbol>

<symbol id="icon-info" viewBox="0 0 510 510">
<g>
	<g id="info-outline">
		<path d="M229.5,382.5h51v-153h-51V382.5z M255,0C114.75,0,0,114.75,0,255s114.75,255,255,255s255-114.75,255-255S395.25,0,255,0z
			 M255,459c-112.2,0-204-91.8-204-204S142.8,51,255,51s204,91.8,204,204S367.2,459,255,459z M229.5,178.5h51v-51h-51V178.5z"/>
	</g>
</g>
<g>
</g>
<g>
</g>
<g>
</g>
<g>
</g>
<g>
</g>
<g>
</g>
<g>
</g>
<g>
</g>
<g>
</g>
<g>
</g>
<g>
</g>
<g>
</g>
<g>
</g>
<g>
</g>
<g>
</g>
</symbol>

<symbol id="icon-link" viewBox="0 0 482.8 482.8">
<g>
	<g>
		<path d="M255.2,209.3c-5.3,5.3-5.3,13.8,0,19.1c21.9,21.9,21.9,57.5,0,79.4l-115,115c-21.9,21.9-57.5,21.9-79.4,0l-17.3-17.3
			c-21.9-21.9-21.9-57.5,0-79.4l115-115c5.3-5.3,5.3-13.8,0-19.1s-13.8-5.3-19.1,0l-115,115C8.7,322.7,0,343.6,0,365.8
			c0,22.2,8.6,43.1,24.4,58.8l17.3,17.3c16.2,16.2,37.5,24.3,58.8,24.3s42.6-8.1,58.8-24.3l115-115c32.4-32.4,32.4-85.2,0-117.6
			C269.1,204,260.5,204,255.2,209.3z"/>
		<path d="M458.5,58.2l-17.3-17.3c-32.4-32.4-85.2-32.4-117.6,0l-115,115c-32.4,32.4-32.4,85.2,0,117.6c5.3,5.3,13.8,5.3,19.1,0
			s5.3-13.8,0-19.1c-21.9-21.9-21.9-57.5,0-79.4l115-115c21.9-21.9,57.5-21.9,79.4,0l17.3,17.3c21.9,21.9,21.9,57.5,0,79.4l-115,115
			c-5.3,5.3-5.3,13.8,0,19.1c2.6,2.6,6.1,4,9.5,4s6.9-1.3,9.5-4l115-115c15.7-15.7,24.4-36.6,24.4-58.8
			C482.8,94.8,474.2,73.9,458.5,58.2z"/>
	</g>
</g>
<g>
</g>
<g>
</g>
<g>
</g>
<g>
</g>
<g>
</g>
<g>
</g>
<g>
</g>
<g>
</g>
<g>
</g>
<g>
</g>
<g>
</g>
<g>
</g>
<g>
</g>
<g>
</g>
<g>
</g>
</symbol>

<symbol id="icon-list" viewBox="0 0 24 24">
  <g>
    <path d="M3,2H1C0.4,2,0,2.4,0,3v2c0,0.6,0.4,1,1,1h2c0.6,0,1-0.4,1-1V3C4,2.4,3.6,2,3,2z"/>
    <path d="m3,10h-2c-0.6,0-1,0.4-1,1v2c0,0.6 0.4,1 1,1h2c0.6,0 1-0.4 1-1v-2c0-0.6-0.4-1-1-1z"/>
    <path d="m3,18h-2c-0.6,0-1,0.4-1,1v2c0,0.6 0.4,1 1,1h2c0.6,0 1-0.4 1-1v-2c0-0.6-0.4-1-1-1z"/>
    <path d="M23,2H9C8.4,2,8,2.4,8,3v2c0,0.6,0.4,1,1,1h14c0.6,0,1-0.4,1-1V3C24,2.4,23.6,2,23,2z"/>
    <path d="m23,10h-14c-0.6,0-1,0.4-1,1v2c0,0.6 0.4,1 1,1h14c0.6,0 1-0.4 1-1v-2c0-0.6-0.4-1-1-1z"/>
    <path d="m23,18h-14c-0.6,0-1,0.4-1,1v2c0,0.6 0.4,1 1,1h14c0.6,0 1-0.4 1-1v-2c0-0.6-0.4-1-1-1z"/>
  </g>
</symbol>

<symbol id="icon-loader" viewBox="0 0 100 100"><g transform="rotate(0 50 50)">
  <rect x="47.5" y="22.5" rx="4.75" ry="2.25" width="5" height="15" fill="#cecece">
    <animate attributeName="opacity" values="1;0" times="0;1" dur="1s" begin="-0.9s" repeatCount="indefinite"/>
  </rect>
</g><g transform="rotate(36 50 50)">
  <rect x="47.5" y="22.5" rx="4.75" ry="2.25" width="5" height="15" fill="#cecece">
    <animate attributeName="opacity" values="1;0" times="0;1" dur="1s" begin="-0.8s" repeatCount="indefinite"/>
  </rect>
</g><g transform="rotate(72 50 50)">
  <rect x="47.5" y="22.5" rx="4.75" ry="2.25" width="5" height="15" fill="#cecece">
    <animate attributeName="opacity" values="1;0" times="0;1" dur="1s" begin="-0.7s" repeatCount="indefinite"/>
  </rect>
</g><g transform="rotate(108 50 50)">
  <rect x="47.5" y="22.5" rx="4.75" ry="2.25" width="5" height="15" fill="#cecece">
    <animate attributeName="opacity" values="1;0" times="0;1" dur="1s" begin="-0.6s" repeatCount="indefinite"/>
  </rect>
</g><g transform="rotate(144 50 50)">
  <rect x="47.5" y="22.5" rx="4.75" ry="2.25" width="5" height="15" fill="#cecece">
    <animate attributeName="opacity" values="1;0" times="0;1" dur="1s" begin="-0.5s" repeatCount="indefinite"/>
  </rect>
</g><g transform="rotate(180 50 50)">
  <rect x="47.5" y="22.5" rx="4.75" ry="2.25" width="5" height="15" fill="#cecece">
    <animate attributeName="opacity" values="1;0" times="0;1" dur="1s" begin="-0.4s" repeatCount="indefinite"/>
  </rect>
</g><g transform="rotate(216 50 50)">
  <rect x="47.5" y="22.5" rx="4.75" ry="2.25" width="5" height="15" fill="#cecece">
    <animate attributeName="opacity" values="1;0" times="0;1" dur="1s" begin="-0.3s" repeatCount="indefinite"/>
  </rect>
</g><g transform="rotate(252 50 50)">
  <rect x="47.5" y="22.5" rx="4.75" ry="2.25" width="5" height="15" fill="#cecece">
    <animate attributeName="opacity" values="1;0" times="0;1" dur="1s" begin="-0.2s" repeatCount="indefinite"/>
  </rect>
</g><g transform="rotate(288 50 50)">
  <rect x="47.5" y="22.5" rx="4.75" ry="2.25" width="5" height="15" fill="#cecece">
    <animate attributeName="opacity" values="1;0" times="0;1" dur="1s" begin="-0.1s" repeatCount="indefinite"/>
  </rect>
</g><g transform="rotate(324 50 50)">
  <rect x="47.5" y="22.5" rx="4.75" ry="2.25" width="5" height="15" fill="#cecece">
    <animate attributeName="opacity" values="1;0" times="0;1" dur="1s" begin="0s" repeatCount="indefinite"/>
  </rect>
</g></symbol>

<symbol id="icon-marker" viewBox="0 0 430.114 430.114">
<g>
	<path id="Facebook_Places" d="M356.208,107.051c-1.531-5.738-4.64-11.852-6.94-17.205C321.746,23.704,261.611,0,213.055,0
		C148.054,0,76.463,43.586,66.905,133.427v18.355c0,0.766,0.264,7.647,0.639,11.089c5.358,42.816,39.143,88.32,64.375,131.136
		c27.146,45.873,55.314,90.999,83.221,136.106c17.208-29.436,34.354-59.259,51.17-87.933c4.583-8.415,9.903-16.825,14.491-24.857
		c3.058-5.348,8.9-10.696,11.569-15.672c27.145-49.699,70.838-99.782,70.838-149.104v-20.262
		C363.209,126.938,356.581,108.204,356.208,107.051z M214.245,199.193c-19.107,0-40.021-9.554-50.344-35.939
		c-1.538-4.2-1.414-12.617-1.414-13.388v-11.852c0-33.636,28.56-48.932,53.406-48.932c30.588,0,54.245,24.472,54.245,55.06
		C270.138,174.729,244.833,199.193,214.245,199.193z"/>
</g>
<g>
</g>
<g>
</g>
<g>
</g>
<g>
</g>
<g>
</g>
<g>
</g>
<g>
</g>
<g>
</g>
<g>
</g>
<g>
</g>
<g>
</g>
<g>
</g>
<g>
</g>
<g>
</g>
<g>
</g>
</symbol>

<symbol id="icon-menu" viewBox="0 0 512 512">
<g>
	<g>
		<path d="M491.318,235.318H20.682C9.26,235.318,0,244.577,0,256s9.26,20.682,20.682,20.682h470.636
			c11.423,0,20.682-9.259,20.682-20.682C512,244.578,502.741,235.318,491.318,235.318z"/>
	</g>
</g>
<g>
	<g>
		<path d="M491.318,78.439H20.682C9.26,78.439,0,87.699,0,99.121c0,11.422,9.26,20.682,20.682,20.682h470.636
			c11.423,0,20.682-9.26,20.682-20.682C512,87.699,502.741,78.439,491.318,78.439z"/>
	</g>
</g>
<g>
	<g>
		<path d="M491.318,392.197H20.682C9.26,392.197,0,401.456,0,412.879s9.26,20.682,20.682,20.682h470.636
			c11.423,0,20.682-9.259,20.682-20.682S502.741,392.197,491.318,392.197z"/>
	</g>
</g>
<g>
</g>
<g>
</g>
<g>
</g>
<g>
</g>
<g>
</g>
<g>
</g>
<g>
</g>
<g>
</g>
<g>
</g>
<g>
</g>
<g>
</g>
<g>
</g>
<g>
</g>
<g>
</g>
<g>
</g>
</symbol>

<symbol id="icon-next" viewBox="0 0 477.175 477.175">
<g>
	<path d="M360.731,229.075l-225.1-225.1c-5.3-5.3-13.8-5.3-19.1,0s-5.3,13.8,0,19.1l215.5,215.5l-215.5,215.5
		c-5.3,5.3-5.3,13.8,0,19.1c2.6,2.6,6.1,4,9.5,4c3.4,0,6.9-1.3,9.5-4l225.1-225.1C365.931,242.875,365.931,234.275,360.731,229.075z
		"/>
</g>
<g>
</g>
<g>
</g>
<g>
</g>
<g>
</g>
<g>
</g>
<g>
</g>
<g>
</g>
<g>
</g>
<g>
</g>
<g>
</g>
<g>
</g>
<g>
</g>
<g>
</g>
<g>
</g>
<g>
</g>
</symbol>

<symbol id="icon-notebook" viewBox="0 0 235.588 235.588">
<g>
	<path d="M209.447,0H52.018C33.613,0,18.641,14.974,18.641,33.38v168.822c0,18.4,14.972,33.377,33.377,33.386h157.43
		c4.143,0,7.5-3.358,7.5-7.5v-51.764V59.266V7.5C216.947,3.358,213.59,0,209.447,0z M52.018,15h149.93v44.266v109.559H52.018
		c-6.786,0-13.103,2.041-18.377,5.534V33.38C33.641,23.245,41.885,15,52.018,15z M52.021,220.588
		c-10.136-0.005-18.381-8.252-18.381-18.386c0-10.134,8.244-18.378,18.377-18.378h149.93v10.878H52.018c-4.143,0-7.5,3.358-7.5,7.5
		c0,4.142,3.357,7.5,7.5,7.5h149.93v10.886H52.021z"/>
	<path d="M61.957,93.202h111.674c4.143,0,7.5-3.358,7.5-7.5V48.803c0-4.142-3.357-7.5-7.5-7.5H61.957c-4.143,0-7.5,3.358-7.5,7.5
		v36.899C54.457,89.844,57.814,93.202,61.957,93.202z M69.457,56.303h96.674v21.899H69.457V56.303z"/>
</g>
<g>
</g>
<g>
</g>
<g>
</g>
<g>
</g>
<g>
</g>
<g>
</g>
<g>
</g>
<g>
</g>
<g>
</g>
<g>
</g>
<g>
</g>
<g>
</g>
<g>
</g>
<g>
</g>
<g>
</g>
</symbol>

<symbol id="icon-open-book" viewBox="0 0 511.998 511.998">
<g>
	<g>
		<path d="M503.169,147.785L461,128.758V99.797c0-5.889-3.446-11.233-8.81-13.663c-30.339-13.745-65.33-21.01-101.19-21.01
			c-33.446,0-66.135,6.319-95,18.322c-28.865-12.003-61.554-18.322-95-18.322c-35.86,0-70.851,7.265-101.19,21.01
			C54.446,88.564,51,93.909,51,99.797v28.961L8.831,147.785C3.456,150.21,0,155.56,0,161.457v260.399
			c0,8.53,4.278,16.385,11.444,21.011c7.062,4.56,15.971,5.333,23.835,1.782l56.818-25.639c20.15-9.09,43.839-13.894,68.503-13.894
			c49.858,0,76.132,18.527,89.23,23.242c3.923,1.77,8.417,1.77,12.339,0c13.035-4.692,39.404-23.242,89.23-23.242
			c24.664,0,48.352,4.804,68.5,13.893l56.815,25.637c7.767,3.507,16.68,2.844,23.84-1.779c7.166-4.626,11.444-12.48,11.444-21.011
			V161.457C512,155.56,508.544,150.21,503.169,147.785z M271,109.751c49.593-19.481,110.406-19.491,160-0.011
			c0,7.369,0,207.355,0,228.094c-24.975-8.352-52.225-12.709-80-12.709c-27.777,0-55.024,4.373-80,12.726V109.751z M81,109.74
			c49.594-19.479,110.407-19.469,160,0.012V337.85c-24.976-8.353-52.223-12.726-80-12.726c-27.775,0-55.025,4.357-80,12.709
			C81,330.895,81,121.68,81,109.74z M482,414.119l-49.763-22.455c-23.999-10.824-51.952-16.546-80.837-16.546
			c-55.328,0-86.96,20.181-95.4,23.113c-8.077-2.807-39.937-23.113-95.4-23.113c-28.886,0-56.839,5.722-80.84,16.547L30,414.119
			V171.146l21-9.476v198.127c0,10.864,11.242,18.168,21.19,13.663c53.95-24.441,123.67-24.441,177.62,0
			c3.871,1.763,8.498,1.768,12.38,0c53.95-24.441,123.67-24.441,177.62,0c9.881,4.476,21.19-2.749,21.19-13.663V161.67l21,9.476
			V414.119z"/>
	</g>
</g>
<g>
</g>
<g>
</g>
<g>
</g>
<g>
</g>
<g>
</g>
<g>
</g>
<g>
</g>
<g>
</g>
<g>
</g>
<g>
</g>
<g>
</g>
<g>
</g>
<g>
</g>
<g>
</g>
<g>
</g>
</symbol>

<symbol id="icon-options" viewBox="0 0 478.703 478.703">
<g>
	<g>
		<path d="M454.2,189.101l-33.6-5.7c-3.5-11.3-8-22.2-13.5-32.6l19.8-27.7c8.4-11.8,7.1-27.9-3.2-38.1l-29.8-29.8
			c-5.6-5.6-13-8.7-20.9-8.7c-6.2,0-12.1,1.9-17.1,5.5l-27.8,19.8c-10.8-5.7-22.1-10.4-33.8-13.9l-5.6-33.2
			c-2.4-14.3-14.7-24.7-29.2-24.7h-42.1c-14.5,0-26.8,10.4-29.2,24.7l-5.8,34c-11.2,3.5-22.1,8.1-32.5,13.7l-27.5-19.8
			c-5-3.6-11-5.5-17.2-5.5c-7.9,0-15.4,3.1-20.9,8.7l-29.9,29.8c-10.2,10.2-11.6,26.3-3.2,38.1l20,28.1
			c-5.5,10.5-9.9,21.4-13.3,32.7l-33.2,5.6c-14.3,2.4-24.7,14.7-24.7,29.2v42.1c0,14.5,10.4,26.8,24.7,29.2l34,5.8
			c3.5,11.2,8.1,22.1,13.7,32.5l-19.7,27.4c-8.4,11.8-7.1,27.9,3.2,38.1l29.8,29.8c5.6,5.6,13,8.7,20.9,8.7c6.2,0,12.1-1.9,17.1-5.5
			l28.1-20c10.1,5.3,20.7,9.6,31.6,13l5.6,33.6c2.4,14.3,14.7,24.7,29.2,24.7h42.2c14.5,0,26.8-10.4,29.2-24.7l5.7-33.6
			c11.3-3.5,22.2-8,32.6-13.5l27.7,19.8c5,3.6,11,5.5,17.2,5.5l0,0c7.9,0,15.3-3.1,20.9-8.7l29.8-29.8c10.2-10.2,11.6-26.3,3.2-38.1
			l-19.8-27.8c5.5-10.5,10.1-21.4,13.5-32.6l33.6-5.6c14.3-2.4,24.7-14.7,24.7-29.2v-42.1
			C478.9,203.801,468.5,191.501,454.2,189.101z M451.9,260.401c0,1.3-0.9,2.4-2.2,2.6l-42,7c-5.3,0.9-9.5,4.8-10.8,9.9
			c-3.8,14.7-9.6,28.8-17.4,41.9c-2.7,4.6-2.5,10.3,0.6,14.7l24.7,34.8c0.7,1,0.6,2.5-0.3,3.4l-29.8,29.8c-0.7,0.7-1.4,0.8-1.9,0.8
			c-0.6,0-1.1-0.2-1.5-0.5l-34.7-24.7c-4.3-3.1-10.1-3.3-14.7-0.6c-13.1,7.8-27.2,13.6-41.9,17.4c-5.2,1.3-9.1,5.6-9.9,10.8l-7.1,42
			c-0.2,1.3-1.3,2.2-2.6,2.2h-42.1c-1.3,0-2.4-0.9-2.6-2.2l-7-42c-0.9-5.3-4.8-9.5-9.9-10.8c-14.3-3.7-28.1-9.4-41-16.8
			c-2.1-1.2-4.5-1.8-6.8-1.8c-2.7,0-5.5,0.8-7.8,2.5l-35,24.9c-0.5,0.3-1,0.5-1.5,0.5c-0.4,0-1.2-0.1-1.9-0.8l-29.8-29.8
			c-0.9-0.9-1-2.3-0.3-3.4l24.6-34.5c3.1-4.4,3.3-10.2,0.6-14.8c-7.8-13-13.8-27.1-17.6-41.8c-1.4-5.1-5.6-9-10.8-9.9l-42.3-7.2
			c-1.3-0.2-2.2-1.3-2.2-2.6v-42.1c0-1.3,0.9-2.4,2.2-2.6l41.7-7c5.3-0.9,9.6-4.8,10.9-10c3.7-14.7,9.4-28.9,17.1-42
			c2.7-4.6,2.4-10.3-0.7-14.6l-24.9-35c-0.7-1-0.6-2.5,0.3-3.4l29.8-29.8c0.7-0.7,1.4-0.8,1.9-0.8c0.6,0,1.1,0.2,1.5,0.5l34.5,24.6
			c4.4,3.1,10.2,3.3,14.8,0.6c13-7.8,27.1-13.8,41.8-17.6c5.1-1.4,9-5.6,9.9-10.8l7.2-42.3c0.2-1.3,1.3-2.2,2.6-2.2h42.1
			c1.3,0,2.4,0.9,2.6,2.2l7,41.7c0.9,5.3,4.8,9.6,10,10.9c15.1,3.8,29.5,9.7,42.9,17.6c4.6,2.7,10.3,2.5,14.7-0.6l34.5-24.8
			c0.5-0.3,1-0.5,1.5-0.5c0.4,0,1.2,0.1,1.9,0.8l29.8,29.8c0.9,0.9,1,2.3,0.3,3.4l-24.7,34.7c-3.1,4.3-3.3,10.1-0.6,14.7
			c7.8,13.1,13.6,27.2,17.4,41.9c1.3,5.2,5.6,9.1,10.8,9.9l42,7.1c1.3,0.2,2.2,1.3,2.2,2.6v42.1H451.9z"/>
		<path d="M239.4,136.001c-57,0-103.3,46.3-103.3,103.3s46.3,103.3,103.3,103.3s103.3-46.3,103.3-103.3S296.4,136.001,239.4,136.001
			z M239.4,315.601c-42.1,0-76.3-34.2-76.3-76.3s34.2-76.3,76.3-76.3s76.3,34.2,76.3,76.3S281.5,315.601,239.4,315.601z"/>
	</g>
</g>
<g>
</g>
<g>
</g>
<g>
</g>
<g>
</g>
<g>
</g>
<g>
</g>
<g>
</g>
<g>
</g>
<g>
</g>
<g>
</g>
<g>
</g>
<g>
</g>
<g>
</g>
<g>
</g>
<g>
</g>
</symbol>

<symbol id="icon-pencil" viewBox="0 0 469.331 469.331">
<g>
	<path d="M438.931,30.403c-40.4-40.5-106.1-40.5-146.5,0l-268.6,268.5c-2.1,2.1-3.4,4.8-3.8,7.7l-19.9,147.4
		c-0.6,4.2,0.9,8.4,3.8,11.3c2.5,2.5,6,4,9.5,4c0.6,0,1.2,0,1.8-0.1l88.8-12c7.4-1,12.6-7.8,11.6-15.2c-1-7.4-7.8-12.6-15.2-11.6
		l-71.2,9.6l13.9-102.8l108.2,108.2c2.5,2.5,6,4,9.5,4s7-1.4,9.5-4l268.6-268.5c19.6-19.6,30.4-45.6,30.4-73.3
		S458.531,49.903,438.931,30.403z M297.631,63.403l45.1,45.1l-245.1,245.1l-45.1-45.1L297.631,63.403z M160.931,416.803l-44.1-44.1
		l245.1-245.1l44.1,44.1L160.931,416.803z M424.831,152.403l-107.9-107.9c13.7-11.3,30.8-17.5,48.8-17.5c20.5,0,39.7,8,54.2,22.4
		s22.4,33.7,22.4,54.2C442.331,121.703,436.131,138.703,424.831,152.403z"/>
</g>
<g>
</g>
<g>
</g>
<g>
</g>
<g>
</g>
<g>
</g>
<g>
</g>
<g>
</g>
<g>
</g>
<g>
</g>
<g>
</g>
<g>
</g>
<g>
</g>
<g>
</g>
<g>
</g>
<g>
</g>
</symbol>

<symbol id="icon-photo" viewBox="0 0 550.801 550.8">
<g>
	<path d="M515.828,61.201H34.972C15.659,61.201,0,76.859,0,96.172v358.458C0,473.942,15.659,489.6,34.972,489.6h480.856
		c19.314,0,34.973-15.658,34.973-34.971V96.172C550.801,76.859,535.143,61.201,515.828,61.201z M515.828,96.172V350.51l-68.92-62.66
		c-10.359-9.416-26.289-9.04-36.186,0.866l-69.752,69.741L203.438,194.179c-10.396-12.415-29.438-12.537-39.99-0.271L34.972,343.219
		V96.172H515.828z M367.201,187.972c0-26.561,21.523-48.086,48.084-48.086c26.562,0,48.086,21.525,48.086,48.086
		c0,26.561-21.523,48.085-48.086,48.085C388.725,236.058,367.201,214.533,367.201,187.972z"/>
</g>
<g>
</g>
<g>
</g>
<g>
</g>
<g>
</g>
<g>
</g>
<g>
</g>
<g>
</g>
<g>
</g>
<g>
</g>
<g>
</g>
<g>
</g>
<g>
</g>
<g>
</g>
<g>
</g>
<g>
</g>
</symbol>

<symbol id="icon-print" viewBox="0 0 482.5 482.5">
<g>
	<g>
		<path d="M399.25,98.9h-12.4V71.3c0-39.3-32-71.3-71.3-71.3h-149.7c-39.3,0-71.3,32-71.3,71.3v27.6h-11.3
			c-39.3,0-71.3,32-71.3,71.3v115c0,39.3,32,71.3,71.3,71.3h11.2v90.4c0,19.6,16,35.6,35.6,35.6h221.1c19.6,0,35.6-16,35.6-35.6
			v-90.4h12.5c39.3,0,71.3-32,71.3-71.3v-115C470.55,130.9,438.55,98.9,399.25,98.9z M121.45,71.3c0-24.4,19.9-44.3,44.3-44.3h149.6
			c24.4,0,44.3,19.9,44.3,44.3v27.6h-238.2V71.3z M359.75,447.1c0,4.7-3.9,8.6-8.6,8.6h-221.1c-4.7,0-8.6-3.9-8.6-8.6V298h238.3
			V447.1z M443.55,285.3c0,24.4-19.9,44.3-44.3,44.3h-12.4V298h17.8c7.5,0,13.5-6,13.5-13.5s-6-13.5-13.5-13.5h-330
			c-7.5,0-13.5,6-13.5,13.5s6,13.5,13.5,13.5h19.9v31.6h-11.3c-24.4,0-44.3-19.9-44.3-44.3v-115c0-24.4,19.9-44.3,44.3-44.3h316
			c24.4,0,44.3,19.9,44.3,44.3V285.3z"/>
		<path d="M154.15,364.4h171.9c7.5,0,13.5-6,13.5-13.5s-6-13.5-13.5-13.5h-171.9c-7.5,0-13.5,6-13.5,13.5S146.75,364.4,154.15,364.4
			z"/>
		<path d="M327.15,392.6h-172c-7.5,0-13.5,6-13.5,13.5s6,13.5,13.5,13.5h171.9c7.5,0,13.5-6,13.5-13.5S334.55,392.6,327.15,392.6z"/>
		<path d="M398.95,151.9h-27.4c-7.5,0-13.5,6-13.5,13.5s6,13.5,13.5,13.5h27.4c7.5,0,13.5-6,13.5-13.5S406.45,151.9,398.95,151.9z"/>
	</g>
</g>
<g>
</g>
<g>
</g>
<g>
</g>
<g>
</g>
<g>
</g>
<g>
</g>
<g>
</g>
<g>
</g>
<g>
</g>
<g>
</g>
<g>
</g>
<g>
</g>
<g>
</g>
<g>
</g>
<g>
</g>
</symbol>

<symbol id="icon-reload" viewBox="0 0 489.711 489.711">
<g>
	<g>
		<path d="M112.156,97.111c72.3-65.4,180.5-66.4,253.8-6.7l-58.1,2.2c-7.5,0.3-13.3,6.5-13,14c0.3,7.3,6.3,13,13.5,13
			c0.2,0,0.3,0,0.5,0l89.2-3.3c7.3-0.3,13-6.2,13-13.5v-1c0-0.2,0-0.3,0-0.5v-0.1l0,0l-3.3-88.2c-0.3-7.5-6.6-13.3-14-13
			c-7.5,0.3-13.3,6.5-13,14l2.1,55.3c-36.3-29.7-81-46.9-128.8-49.3c-59.2-3-116.1,17.3-160,57.1c-60.4,54.7-86,137.9-66.8,217.1
			c1.5,6.2,7,10.3,13.1,10.3c1.1,0,2.1-0.1,3.2-0.4c7.2-1.8,11.7-9.1,9.9-16.3C36.656,218.211,59.056,145.111,112.156,97.111z"/>
		<path d="M462.456,195.511c-1.8-7.2-9.1-11.7-16.3-9.9c-7.2,1.8-11.7,9.1-9.9,16.3c16.9,69.6-5.6,142.7-58.7,190.7
			c-37.3,33.7-84.1,50.3-130.7,50.3c-44.5,0-88.9-15.1-124.7-44.9l58.8-5.3c7.4-0.7,12.9-7.2,12.2-14.7s-7.2-12.9-14.7-12.2l-88.9,8
			c-7.4,0.7-12.9,7.2-12.2,14.7l8,88.9c0.6,7,6.5,12.3,13.4,12.3c0.4,0,0.8,0,1.2-0.1c7.4-0.7,12.9-7.2,12.2-14.7l-4.8-54.1
			c36.3,29.4,80.8,46.5,128.3,48.9c3.8,0.2,7.6,0.3,11.3,0.3c55.1,0,107.5-20.2,148.7-57.4
			C456.056,357.911,481.656,274.811,462.456,195.511z"/>
	</g>
</g>
<g>
</g>
<g>
</g>
<g>
</g>
<g>
</g>
<g>
</g>
<g>
</g>
<g>
</g>
<g>
</g>
<g>
</g>
<g>
</g>
<g>
</g>
<g>
</g>
<g>
</g>
<g>
</g>
<g>
</g>
</symbol>

<symbol id="icon-reload2" viewBox="0 0 470.083 470.083">
<g>
	<path d="M434.961,270.163c0,110.241-89.684,199.92-199.923,199.92c-110.235,0-199.917-89.679-199.917-199.92
		c0-36.44,9.915-72.129,28.658-103.178l52.163,31.487c-13.013,21.56-19.89,46.353-19.896,71.697
		c0,76.64,62.35,138.985,138.985,138.985c76.642,0,138.989-62.346,138.989-138.985c0-73.864-57.961-134.275-130.759-138.566h-29.808
		l25.1,63.541c0.843,2.128,0.16,4.558-1.669,5.932c-1.827,1.38-4.351,1.374-6.168-0.026l-124.806-95.965
		c-1.25-0.966-1.989-2.444-1.989-4.037c0-1.584,0.739-3.074,1.989-4.037L230.724,1.052C231.64,0.346,232.727,0,233.824,0
		c1.082,0,2.154,0.34,3.068,1.022c1.829,1.374,2.512,3.807,1.669,5.938l-25.1,63.534l21.586-0.254c7.72,0,33.325,2.598,37.545,3.591
		C364.931,91.46,434.961,172.766,434.961,270.163z"/>
</g>
<g>
</g>
<g>
</g>
<g>
</g>
<g>
</g>
<g>
</g>
<g>
</g>
<g>
</g>
<g>
</g>
<g>
</g>
<g>
</g>
<g>
</g>
<g>
</g>
<g>
</g>
<g>
</g>
<g>
</g>
</symbol>

<symbol id="icon-search" viewBox="0 0 512 512">
  <g>
    <path d="M495,466.2L377.2,348.4c29.2-35.6,46.8-81.2,46.8-130.9C424,103.5,331.5,11,217.5,11C103.4,11,11,103.5,11,217.5   S103.4,424,217.5,424c49.7,0,95.2-17.5,130.8-46.7L466.1,495c8,8,20.9,8,28.9,0C503,487.1,503,474.1,495,466.2z M217.5,382.9   C126.2,382.9,52,308.7,52,217.5S126.2,52,217.5,52C308.7,52,383,126.3,383,217.5S308.7,382.9,217.5,382.9z"/>
  </g>
</symbol>

<symbol id="icon-settings" viewBox="0 0 480.3 480.3">
<g>
	<g>
		<path d="M254.15,234.1V13.5c0-7.5-6-13.5-13.5-13.5s-13.5,6-13.5,13.5v220.6c-31.3,6.3-55,34-55,67.2s23.7,60.9,55,67.2v98.2
			c0,7.5,6,13.5,13.5,13.5s13.5-6,13.5-13.5v-98.2c31.3-6.3,55-34,55-67.2C309.15,268.2,285.55,240.4,254.15,234.1z M240.65,342.8
			c-22.9,0-41.5-18.6-41.5-41.5s18.6-41.5,41.5-41.5s41.5,18.6,41.5,41.5S263.55,342.8,240.65,342.8z"/>
		<path d="M88.85,120.9V13.5c0-7.5-6-13.5-13.5-13.5s-13.5,6-13.5,13.5v107.4c-31.3,6.3-55,34-55,67.2s23.7,60.9,55,67.2v211.4
			c0,7.5,6,13.5,13.5,13.5s13.5-6,13.5-13.5V255.2c31.3-6.3,55-34,55-67.2S120.15,127.2,88.85,120.9z M75.35,229.6
			c-22.9,0-41.5-18.6-41.5-41.5s18.6-41.5,41.5-41.5s41.5,18.6,41.5,41.5S98.15,229.6,75.35,229.6z"/>
		<path d="M418.45,120.9V13.5c0-7.5-6-13.5-13.5-13.5s-13.5,6-13.5,13.5v107.4c-31.3,6.3-55,34-55,67.2s23.7,60.9,55,67.2v211.5
			c0,7.5,6,13.5,13.5,13.5s13.5-6,13.5-13.5V255.2c31.3-6.3,55-34,55-67.2S449.85,127.2,418.45,120.9z M404.95,229.6
			c-22.9,0-41.5-18.6-41.5-41.5s18.6-41.5,41.5-41.5s41.5,18.6,41.5,41.5S427.85,229.6,404.95,229.6z"/>
	</g>
</g>
<g>
</g>
<g>
</g>
<g>
</g>
<g>
</g>
<g>
</g>
<g>
</g>
<g>
</g>
<g>
</g>
<g>
</g>
<g>
</g>
<g>
</g>
<g>
</g>
<g>
</g>
<g>
</g>
<g>
</g>
</symbol>

<symbol id="icon-share" viewBox="0 0 481.6 481.6">
<g>
	<path d="M381.6,309.4c-27.7,0-52.4,13.2-68.2,33.6l-132.3-73.9c3.1-8.9,4.8-18.5,4.8-28.4c0-10-1.7-19.5-4.9-28.5l132.2-73.8
		c15.7,20.5,40.5,33.8,68.3,33.8c47.4,0,86.1-38.6,86.1-86.1S429,0,381.5,0s-86.1,38.6-86.1,86.1c0,10,1.7,19.6,4.9,28.5
		l-132.1,73.8c-15.7-20.6-40.5-33.8-68.3-33.8c-47.4,0-86.1,38.6-86.1,86.1s38.7,86.1,86.2,86.1c27.8,0,52.6-13.3,68.4-33.9
		l132.2,73.9c-3.2,9-5,18.7-5,28.7c0,47.4,38.6,86.1,86.1,86.1s86.1-38.6,86.1-86.1S429.1,309.4,381.6,309.4z M381.6,27.1
		c32.6,0,59.1,26.5,59.1,59.1s-26.5,59.1-59.1,59.1s-59.1-26.5-59.1-59.1S349.1,27.1,381.6,27.1z M100,299.8
		c-32.6,0-59.1-26.5-59.1-59.1s26.5-59.1,59.1-59.1s59.1,26.5,59.1,59.1S132.5,299.8,100,299.8z M381.6,454.5
		c-32.6,0-59.1-26.5-59.1-59.1c0-32.6,26.5-59.1,59.1-59.1s59.1,26.5,59.1,59.1C440.7,428,414.2,454.5,381.6,454.5z"/>
</g>
<g>
</g>
<g>
</g>
<g>
</g>
<g>
</g>
<g>
</g>
<g>
</g>
<g>
</g>
<g>
</g>
<g>
</g>
<g>
</g>
<g>
</g>
<g>
</g>
<g>
</g>
<g>
</g>
<g>
</g>
</symbol>

<symbol id="icon-sound" viewBox="0 0 485 485">
<g>
	<g>
		<path d="M282.5,55.15c-33.5,0-66.3,8.9-95,25.8c-25.6,15.1-47.3,36.1-63.2,61.1H52.7c-29.1,0-52.7,23.6-52.7,52.7v95.5
			c0,29.1,23.6,52.7,52.7,52.7h71.6c15.9,25,37.6,46,63.2,61.1c28.7,16.9,61.5,25.8,95,25.8c7.5,0,13.5-6,13.5-13.5V68.65
			C296,61.25,290,55.15,282.5,55.15z M118.4,315.95H52.7c-14.2,0-25.7-11.5-25.7-25.7v-95.5c0-14.2,11.5-25.7,25.7-25.7h65.7V315.95
			z M269,402.35c-50.7-4.3-96.9-32.8-123.6-76.6v-166.4c26.7-43.8,72.9-72.3,123.6-76.6V402.35z"/>
		<path d="M348.9,137.95c-6.1-4.3-14.5-2.8-18.8,3.4c-4.3,6.1-2.8,14.5,3.4,18.8c27,18.8,43.1,49.7,43.1,82.5s-16.1,63.7-43.1,82.5
			c-6.1,4.3-7.6,12.7-3.4,18.8c2.6,3.8,6.8,5.8,11.1,5.8c2.7,0,5.4-0.8,7.7-2.4c34.2-23.9,54.7-63,54.7-104.6
			S383.1,161.75,348.9,137.95z"/>
		<path d="M401.1,82.05c-6.1-4.3-14.5-2.8-18.8,3.4c-4.3,6.1-2.8,14.5,3.4,18.8c45.3,31.6,72.3,83.3,72.3,138.3
			s-27,106.8-72.3,138.3c-6.1,4.3-7.6,12.7-3.4,18.8c2.6,3.8,6.8,5.8,11.1,5.8c2.7,0,5.4-0.8,7.7-2.4
			c52.5-36.6,83.9-96.6,83.9-160.5S453.7,118.65,401.1,82.05z"/>
	</g>
</g>
<g>
</g>
<g>
</g>
<g>
</g>
<g>
</g>
<g>
</g>
<g>
</g>
<g>
</g>
<g>
</g>
<g>
</g>
<g>
</g>
<g>
</g>
<g>
</g>
<g>
</g>
<g>
</g>
<g>
</g>
</symbol>

<symbol id="icon-star-empty" viewBox="0 0 482.207 482.207">
<path d="M482.207,186.973l-159.699-33.705L241.104,11.803l-81.404,141.465L0,186.973l109.388,121.134L92.094,470.404l149.01-66.6
	l149.01,66.6l-17.294-162.296L482.207,186.973z M241.104,370.943l-113.654,50.798l13.191-123.788l-83.433-92.393l121.807-25.707
	l62.09-107.9l62.09,107.9L425,205.561l-83.433,92.393l13.191,123.788L241.104,370.943z"/>
<g>
</g>
<g>
</g>
<g>
</g>
<g>
</g>
<g>
</g>
<g>
</g>
<g>
</g>
<g>
</g>
<g>
</g>
<g>
</g>
<g>
</g>
<g>
</g>
<g>
</g>
<g>
</g>
<g>
</g>
</symbol>

<symbol id="icon-star-half" viewBox="0 0 482.207 482.207">
<path d="M482.207,186.973l-159.699-33.705L241.104,11.803l-81.404,141.465L0,186.973l109.388,121.134L92.094,470.404l149.01-66.6
	l149.01,66.6l-17.294-162.296L482.207,186.973z M241.104,370.943V71.953l62.09,107.9L425,205.561l-83.433,92.393l13.191,123.788
	L241.104,370.943z"/>
<g>
</g>
<g>
</g>
<g>
</g>
<g>
</g>
<g>
</g>
<g>
</g>
<g>
</g>
<g>
</g>
<g>
</g>
<g>
</g>
<g>
</g>
<g>
</g>
<g>
</g>
<g>
</g>
<g>
</g>
</symbol>

<symbol id="icon-star" viewBox="0 0 482.207 482.207">
<polygon points="482.207,186.973 322.508,153.269 241.104,11.803 159.699,153.269 0,186.973 109.388,308.108 92.094,470.404 
	241.104,403.803 390.113,470.404 372.818,308.108 "/>
<g>
</g>
<g>
</g>
<g>
</g>
<g>
</g>
<g>
</g>
<g>
</g>
<g>
</g>
<g>
</g>
<g>
</g>
<g>
</g>
<g>
</g>
<g>
</g>
<g>
</g>
<g>
</g>
<g>
</g>
</symbol>

<symbol id="icon-tag" viewBox="0 0 512 512">
<g>
	<g>
		<path d="M458.667,0H323.349c-25.643,0-49.771,9.984-67.904,28.117L18.197,265.387C6.635,276.949,0,292.949,0,309.376
			c0,16.341,6.635,32.341,18.197,43.904l140.544,140.544C170.283,505.365,186.283,512,202.709,512
			c16.341,0,32.341-6.635,43.904-18.197l237.269-237.269C502.016,238.421,512,214.293,512,188.651V53.333
			C512,23.915,488.085,0,458.667,0z M394.667,170.667c-29.419,0-53.333-23.915-53.333-53.333c0-29.419,23.915-53.333,53.333-53.333
			S448,87.915,448,117.333C448,146.752,424.085,170.667,394.667,170.667z"/>
	</g>
</g>
<g>
</g>
<g>
</g>
<g>
</g>
<g>
</g>
<g>
</g>
<g>
</g>
<g>
</g>
<g>
</g>
<g>
</g>
<g>
</g>
<g>
</g>
<g>
</g>
<g>
</g>
<g>
</g>
<g>
</g>
</symbol>

<symbol id="icon-trash" viewBox="0 0 512 512">
<g>
	<g>
		<path d="M64.666,182l23.917,289.072C90.707,494.407,109.97,512,133.393,512h245.215c23.423,0,42.686-17.593,44.824-41.06
			L447.336,182H64.666z M181,407c0,8.291-6.709,15-15,15s-15-6.709-15-15V227c0-8.291,6.709-15,15-15s15,6.709,15,15V407z M271,407
			c0,8.291-6.709,15-15,15c-8.291,0-15-6.709-15-15V227c0-8.291,6.709-15,15-15s15,6.709,15,15V407z M361,407
			c0,8.291-6.709,15-15,15c-8.291,0-15-6.709-15-15V227c0-8.291,6.709-15,15-15c8.291,0,15,6.709,15,15V407z"/>
	</g>
</g>
<g>
	<g>
		<path d="M436,60H331V45c0-24.814-20.186-45-45-45h-60c-24.814,0-45,20.186-45,45v15H76c-24.814,0-45,20.186-45,45v30
			c0,8.291,6.709,15,15,15c17.772,0,411.904,0,420,0c8.291,0,15-6.709,15-15v-30C481,80.186,460.814,60,436,60z M301,60h-90V45
			c0-8.276,6.724-15,15-15h60c8.276,0,15,6.724,15,15V60z"/>
	</g>
</g>
<g>
</g>
<g>
</g>
<g>
</g>
<g>
</g>
<g>
</g>
<g>
</g>
<g>
</g>
<g>
</g>
<g>
</g>
<g>
</g>
<g>
</g>
<g>
</g>
<g>
</g>
<g>
</g>
<g>
</g>
</symbol>

<symbol id="icon-upload-cloud" viewBox="0 0 486.3 486.3">
<g>
	<g>
		<path d="M395.5,135.8c-5.2-30.9-20.5-59.1-43.9-80.5c-26-23.8-59.8-36.9-95-36.9c-27.2,0-53.7,7.8-76.4,22.5
			c-18.9,12.2-34.6,28.7-45.7,48.1c-4.8-0.9-9.8-1.4-14.8-1.4c-42.5,0-77.1,34.6-77.1,77.1c0,5.5,0.6,10.8,1.6,16
			C16.7,200.7,0,232.9,0,267.2c0,27.7,10.3,54.6,29.1,75.9c19.3,21.8,44.8,34.7,72,36.2c0.3,0,0.5,0,0.8,0h86
			c7.5,0,13.5-6,13.5-13.5s-6-13.5-13.5-13.5h-85.6C61.4,349.8,27,310.9,27,267.1c0-28.3,15.2-54.7,39.7-69
			c5.7-3.3,8.1-10.2,5.9-16.4c-2-5.4-3-11.1-3-17.2c0-27.6,22.5-50.1,50.1-50.1c5.9,0,11.7,1,17.1,3c6.6,2.4,13.9-0.6,16.9-6.9
			c18.7-39.7,59.1-65.3,103-65.3c59,0,107.7,44.2,113.3,102.8c0.6,6.1,5.2,11,11.2,12c44.5,7.6,78.1,48.7,78.1,95.6
			c0,49.7-39.1,92.9-87.3,96.6h-73.7c-7.5,0-13.5,6-13.5,13.5s6,13.5,13.5,13.5h74.2c0.3,0,0.6,0,1,0c30.5-2.2,59-16.2,80.2-39.6
			c21.1-23.2,32.6-53,32.6-84C486.2,199.5,447.9,149.6,395.5,135.8z"/>
		<path d="M324.2,280c5.3-5.3,5.3-13.8,0-19.1l-71.5-71.5c-2.5-2.5-6-4-9.5-4s-7,1.4-9.5,4l-71.5,71.5c-5.3,5.3-5.3,13.8,0,19.1
			c2.6,2.6,6.1,4,9.5,4s6.9-1.3,9.5-4l48.5-48.5v222.9c0,7.5,6,13.5,13.5,13.5s13.5-6,13.5-13.5V231.5l48.5,48.5
			C310.4,285.3,318.9,285.3,324.2,280z"/>
	</g>
</g>
<g>
</g>
<g>
</g>
<g>
</g>
<g>
</g>
<g>
</g>
<g>
</g>
<g>
</g>
<g>
</g>
<g>
</g>
<g>
</g>
<g>
</g>
<g>
</g>
<g>
</g>
<g>
</g>
<g>
</g>
</symbol>

<symbol id="icon-upload" viewBox="0 0 471.2 471.2">
<g>
	<g>
		<path d="M457.7,230.15c-7.5,0-13.5,6-13.5,13.5v122.8c0,33.4-27.2,60.5-60.5,60.5H87.5c-33.4,0-60.5-27.2-60.5-60.5v-124.8
			c0-7.5-6-13.5-13.5-13.5s-13.5,6-13.5,13.5v124.8c0,48.3,39.3,87.5,87.5,87.5h296.2c48.3,0,87.5-39.3,87.5-87.5v-122.8
			C471.2,236.25,465.2,230.15,457.7,230.15z"/>
		<path d="M159.3,126.15l62.8-62.8v273.9c0,7.5,6,13.5,13.5,13.5s13.5-6,13.5-13.5V63.35l62.8,62.8c2.6,2.6,6.1,4,9.5,4
			c3.5,0,6.9-1.3,9.5-4c5.3-5.3,5.3-13.8,0-19.1l-85.8-85.8c-2.5-2.5-6-4-9.5-4c-3.6,0-7,1.4-9.5,4l-85.8,85.8
			c-5.3,5.3-5.3,13.8,0,19.1C145.5,131.35,154.1,131.35,159.3,126.15z"/>
	</g>
</g>
<g>
</g>
<g>
</g>
<g>
</g>
<g>
</g>
<g>
</g>
<g>
</g>
<g>
</g>
<g>
</g>
<g>
</g>
<g>
</g>
<g>
</g>
<g>
</g>
<g>
</g>
<g>
</g>
<g>
</g>
</symbol>

<symbol id="icon-user" viewBox="0 0 482.9 482.9">
<g>
	<g>
		<path d="M239.7,260.2c0.5,0,1,0,1.6,0c0.2,0,0.4,0,0.6,0c0.3,0,0.7,0,1,0c29.3-0.5,53-10.8,70.5-30.5
			c38.5-43.4,32.1-117.8,31.4-124.9c-2.5-53.3-27.7-78.8-48.5-90.7C280.8,5.2,262.7,0.4,242.5,0h-0.7c-0.1,0-0.3,0-0.4,0h-0.6
			c-11.1,0-32.9,1.8-53.8,13.7c-21,11.9-46.6,37.4-49.1,91.1c-0.7,7.1-7.1,81.5,31.4,124.9C186.7,249.4,210.4,259.7,239.7,260.2z
			 M164.6,107.3c0-0.3,0.1-0.6,0.1-0.8c3.3-71.7,54.2-79.4,76-79.4h0.4c0.2,0,0.5,0,0.8,0c27,0.6,72.9,11.6,76,79.4
			c0,0.3,0,0.6,0.1,0.8c0.1,0.7,7.1,68.7-24.7,104.5c-12.6,14.2-29.4,21.2-51.5,21.4c-0.2,0-0.3,0-0.5,0l0,0c-0.2,0-0.3,0-0.5,0
			c-22-0.2-38.9-7.2-51.4-21.4C157.7,176.2,164.5,107.9,164.6,107.3z"/>
		<path d="M446.8,383.6c0-0.1,0-0.2,0-0.3c0-0.8-0.1-1.6-0.1-2.5c-0.6-19.8-1.9-66.1-45.3-80.9c-0.3-0.1-0.7-0.2-1-0.3
			c-45.1-11.5-82.6-37.5-83-37.8c-6.1-4.3-14.5-2.8-18.8,3.3c-4.3,6.1-2.8,14.5,3.3,18.8c1.7,1.2,41.5,28.9,91.3,41.7
			c23.3,8.3,25.9,33.2,26.6,56c0,0.9,0,1.7,0.1,2.5c0.1,9-0.5,22.9-2.1,30.9c-16.2,9.2-79.7,41-176.3,41
			c-96.2,0-160.1-31.9-176.4-41.1c-1.6-8-2.3-21.9-2.1-30.9c0-0.8,0.1-1.6,0.1-2.5c0.7-22.8,3.3-47.7,26.6-56
			c49.8-12.8,89.6-40.6,91.3-41.7c6.1-4.3,7.6-12.7,3.3-18.8c-4.3-6.1-12.7-7.6-18.8-3.3c-0.4,0.3-37.7,26.3-83,37.8
			c-0.4,0.1-0.7,0.2-1,0.3c-43.4,14.9-44.7,61.2-45.3,80.9c0,0.9,0,1.7-0.1,2.5c0,0.1,0,0.2,0,0.3c-0.1,5.2-0.2,31.9,5.1,45.3
			c1,2.6,2.8,4.8,5.2,6.3c3,2,74.9,47.8,195.2,47.8s192.2-45.9,195.2-47.8c2.3-1.5,4.2-3.7,5.2-6.3
			C447,415.5,446.9,388.8,446.8,383.6z"/>
	</g>
</g>
<g>
</g>
<g>
</g>
<g>
</g>
<g>
</g>
<g>
</g>
<g>
</g>
<g>
</g>
<g>
</g>
<g>
</g>
<g>
</g>
<g>
</g>
<g>
</g>
<g>
</g>
<g>
</g>
<g>
</g>
</symbol>

<symbol id="icon-wrench" viewBox="0 0 454.999 454.999">
<path d="M442.76,75.879l-87.263,87.263l-63.64-63.64l87.263-87.263C330.518-10.384,270.924-1.644,230.818,38.462
	c-40.106,40.106-48.846,99.699-26.224,148.3L13.2,378.175c-17.608,17.548-17.578,46.076-0.039,63.635
	c17.608,17.608,46.106,17.568,63.674-0.01L268.225,250.4c48.604,22.629,108.202,13.89,148.312-26.219
	C456.643,184.074,465.383,124.481,442.76,75.879z"/>
<g>
</g>
<g>
</g>
<g>
</g>
<g>
</g>
<g>
</g>
<g>
</g>
<g>
</g>
<g>
</g>
<g>
</g>
<g>
</g>
<g>
</g>
<g>
</g>
<g>
</g>
<g>
</g>
<g>
</g>
</symbol>

<symbol id="logo" viewBox="0 0 500 70">


<g transform="matrix( 1, 0, 0, 1, 0,0.45) ">
<g transform="matrix( 1, 0, 0, 1, 0,0) ">
<use xlink:href="#logo_0_Layer0_0_FILL"/>
</g>
</g>
</symbol>

</svg>