<svg xmlns="http://www.w3.org/2000/svg">


<style type="text/css">
    path:not(.svg-nocolor){fill:currentColor}
    use:not(.svg-nocolor):visited{color:currentColor}
    use:not(.svg-nocolor):hover{color:currentColor}
    use:not(.svg-nocolor):active{color:currentColor}
</style>


<symbol id="icon-add-file" viewBox="0 0 64 64">
  <g>
    <g fill="#1D1D1B">
      <path d="m7.053,58.337c0,2.251 0.888,3.565 1.633,4.272 1.359,1.29 3.061,1.39 3.511,1.39 0.058,0 0.095-0.002 0.107-0.003h38.87c2.045,0 3.312-0.842 4.015-1.548 1.615-1.627 1.646-3.875 1.645-4.11v-45.285c0-0.265-0.054-0.527-0.156-0.776-0.104-0.249-0.253-0.474-0.441-0.662l-11-11.001c-0.188-0.188-0.412-0.337-0.663-0.44-0.248-0.103-0.512-0.157-0.775-0.157h-31.495c-2.038,0-3.249,0.89-3.905,1.636-1.503,1.708-1.407,4.095-1.346,4.765v51.919zm35.727-54.257h0.176l9.323,9.324-7.494,.002c0.004,0.012-0.865,0.012-1.426-0.52-0.384-0.366-0.579-0.993-0.579-1.864v-6.942zm-31.33,.256c0.056-0.064 0.224-0.256 0.854-0.256h26.413v6.942c0,2.526 1.003,4.009 1.842,4.809 1.6,1.521 3.644,1.639 4.195,1.639 0.069,0 0.114-0.002 0.133-0.003h7.883v40.857c-0.035,1.608-1.211,1.608-1.596,1.608l-38.978,.003c-0.006,0-0.456-0.03-0.714-0.275-0.318-0.302-0.366-0.958-0.366-1.323v-52.024c0-0.087-0.006-0.174-0.016-0.26-0.043-0.338-0.005-1.313 0.35-1.717z"/>
      <path d="m17.523,48.621h5.107v5.106c0,1.122 0.909,2.032 2.032,2.032 1.122,0 2.032-0.91 2.032-2.032v-5.106h5.107c1.123,0 2.031-0.91 2.031-2.032s-0.908-2.032-2.031-2.032h-5.107v-5.107c0-1.122-0.91-2.032-2.032-2.032-1.123,0-2.032,0.91-2.032,2.032v5.107h-5.107c-1.123,0-2.031,0.91-2.031,2.032s0.908,2.032 2.031,2.032z"/>
    </g>
  </g>
</symbol><symbol id="icon-add" viewBox="0 0 336 336">
<g>
	<g>
		<path d="M286.8,49.2C256.4,18.8,214.4,0,168,0C121.6,0,79.6,18.8,49.2,49.2C18.8,79.6,0,121.6,0,168c0,46.4,18.8,88.4,49.2,118.8
			S121.6,336,168,336c46.4,0,88.4-18.8,118.8-49.2C317.2,256.4,336,214.4,336,168C336,121.6,317.2,79.6,286.8,49.2z M272.4,272.4
			c-26.8,26.8-63.6,43.2-104.4,43.2s-77.6-16.4-104.4-43.2C37.2,245.6,20.4,208.8,20.4,168S36.8,90.4,63.6,63.6
			C90.4,36.8,127.2,20.4,168,20.4s77.6,16.4,104.4,43.2c26.8,26.8,43.2,63.6,43.2,104.4S298.8,245.6,272.4,272.4z"/>
	</g>
</g>
<g>
	<g>
		<path d="M252.4,157.6h-74v-74c0-5.6-4.4-10.4-10.4-10.4c-5.6,0-10.4,4.4-10.4,10.4V158h-74c-5.6,0-10.4,4.4-10.4,10.4
			c0,5.6,4.4,10.4,10.4,10.4H158v74.4c0,5.6,4.4,10.4,10.4,10.4c5.6,0,10.4-4.4,10.4-10.4v-74.8h74.4c5.6,0,10.4-4.4,10.4-10.4
			C262.8,162.4,258.4,157.6,252.4,157.6z"/>
	</g>
</g>
<g>
</g>
<g>
</g>
<g>
</g>
<g>
</g>
<g>
</g>
<g>
</g>
<g>
</g>
<g>
</g>
<g>
</g>
<g>
</g>
<g>
</g>
<g>
</g>
<g>
</g>
<g>
</g>
<g>
</g>
</symbol><symbol id="icon-arrow-next" viewBox="0 0 487.958 487.958">
<g>
	<path d="M483.058,215.613l-215.5-177.6c-4-3.3-9.6-4-14.3-1.8c-4.7,2.2-7.7,7-7.7,12.2v93.6c-104.6,3.8-176.5,40.7-213.9,109.8
		c-32.2,59.6-31.9,130.2-31.6,176.9c0,3.8,0,7.4,0,10.8c0,6.1,4.1,11.5,10.1,13.1c1.1,0.3,2.3,0.4,3.4,0.4c4.8,0,9.3-2.5,11.7-6.8
		c73-128.7,133.1-134.9,220.2-135.2v93.3c0,5.2,3,10,7.8,12.2s10.3,1.5,14.4-1.8l215.4-178.2c3.1-2.6,4.9-6.4,4.9-10.4
		S486.158,218.213,483.058,215.613z M272.558,375.613v-78.1c0-3.6-1.4-7-4-9.5c-2.5-2.5-6-4-9.5-4c-54.4,0-96.1,1.5-136.6,20.4
		c-35,16.3-65.3,44-95.2,87.5c1.2-39.7,6.4-87.1,28.1-127.2c34.4-63.6,101-95.1,203.7-96c7.4-0.1,13.4-6.1,13.4-13.5v-78.2
		l180.7,149.1L272.558,375.613z"/>
</g>
<g>
</g>
<g>
</g>
<g>
</g>
<g>
</g>
<g>
</g>
<g>
</g>
<g>
</g>
<g>
</g>
<g>
</g>
<g>
</g>
<g>
</g>
<g>
</g>
<g>
</g>
<g>
</g>
<g>
</g>
</symbol><symbol id="icon-back" viewBox="0 0 477.175 477.175">
<g>
	<path d="M145.188,238.575l215.5-215.5c5.3-5.3,5.3-13.8,0-19.1s-13.8-5.3-19.1,0l-225.1,225.1c-5.3,5.3-5.3,13.8,0,19.1l225.1,225
		c2.6,2.6,6.1,4,9.5,4s6.9-1.3,9.5-4c5.3-5.3,5.3-13.8,0-19.1L145.188,238.575z"/>
</g>
<g>
</g>
<g>
</g>
<g>
</g>
<g>
</g>
<g>
</g>
<g>
</g>
<g>
</g>
<g>
</g>
<g>
</g>
<g>
</g>
<g>
</g>
<g>
</g>
<g>
</g>
<g>
</g>
<g>
</g>
</symbol><symbol id="icon-book-fav" viewBox="0 0 490 490">
<polygon points="184.634,383.018 245.268,345.122 305.381,383.646 282.444,317.868 340.506,270.647 268.189,269.162 
	244.395,200.275 222.209,266.329 149.51,270.034 208.046,313.274 "/>
<path d="M414.818,30.623h20.007V0H119.346C83.9,0,55.053,28.893,55.053,64.416v342.826c0,28.969,8.008,51.079,23.764,65.656
	C95.659,488.453,115.503,490,122.286,490c1.286,0,2.098-0.046,2.343-0.077h310.319V98.208h-20.884
	C408.556,91.077,395.651,68.483,414.818,30.623z M119.346,30.623H381.33c-11.123,29.104-7.975,51.892-1.846,67.585H119.346
	c-18.573,0-33.67-15.159-33.67-33.793C85.676,45.782,100.773,30.623,119.346,30.623z M404.34,459.3l-280.906,0.046
	c-0.138-0.015-13.535,0.597-23.825-8.927c-9.233-8.544-13.934-23.09-13.934-43.179V119.277c9.799,6.048,21.344,9.554,33.67,9.554
	H404.34V459.3z"/>
<g>
</g>
<g>
</g>
<g>
</g>
<g>
</g>
<g>
</g>
<g>
</g>
<g>
</g>
<g>
</g>
<g>
</g>
<g>
</g>
<g>
</g>
<g>
</g>
<g>
</g>
<g>
</g>
<g>
</g>
</symbol><symbol id="icon-book-marked" viewBox="0 0 511.999 511.999">
<g>
	<g>
		<path d="M444.367,92.55c-6.096-4.158-23.369-18.98-23.369-32.551c0-13.593,17.329-28.442,23.363-32.547
			c5.479-3.68,7.91-10.509,5.986-16.824C448.423,4.315,442.598,0,435.998,0H121C87.916,0,61,26.916,61,60v376.998
			c0,41.319,33.587,74.939,74.893,74.997c0.036,0,0.071,0.005,0.107,0.005c0.018,0,0.035-0.003,0.053-0.003h299.945
			c8.284,0,15-6.716,15-15V104.999C450.998,100.035,448.502,95.34,444.367,92.55z M121,479.417c-17.459-6.192-30-22.865-30-42.42
			v-325.07c8.833,5.123,19.075,8.072,30,8.072V479.417z M121,89.999c-16.542,0-30-13.458-30-30c0-16.542,13.458-30.1,30-30.1
			h279.585c-5.478,8.545-9.587,18.816-9.587,30.1s4.109,21.455,9.587,30C393.614,89.999,128.907,89.999,121,89.999z
			 M360.998,119.999V257.97l-21.68-14.453c-5.038-3.359-11.602-3.359-16.641,0l-21.68,14.453V119.999h0.001H360.998z
			 M420.998,481.997H150.999V119.999h119.999v165.999c0,11.971,13.378,19.11,23.32,12.481l36.68-24.453l36.68,24.453
			c9.914,6.611,23.32-0.464,23.32-12.481V119.999h30V481.997z"/>
	</g>
</g>
<g>
</g>
<g>
</g>
<g>
</g>
<g>
</g>
<g>
</g>
<g>
</g>
<g>
</g>
<g>
</g>
<g>
</g>
<g>
</g>
<g>
</g>
<g>
</g>
<g>
</g>
<g>
</g>
<g>
</g>
</symbol><symbol id="icon-book" viewBox="0 0 490 490">
<g>
	<path d="M414.876,30.623h11.983V0H119.334C83.888,0,55.052,28.904,55.052,64.416v342.806c0,28.993,8,51.093,23.767,65.687
		C95.641,488.46,115.483,490,122.272,490c1.286,0,2.101-0.045,2.34-0.075h310.336V98.194h-20.868
		C408.595,91.126,395.695,68.554,414.876,30.623z M404.325,459.302l-280.901,0.045c-0.127-0.045-13.517,0.598-23.805-8.927
		c-9.256-8.553-13.943-23.087-13.943-43.198V119.263c9.794,6.056,21.33,9.555,33.659,9.555h284.991V459.302z M119.334,98.194
		c-18.556,0-33.659-15.147-33.659-33.778c0-18.631,15.102-33.793,33.659-33.793h262.1c-1.518,3.974-2.77,7.822-3.783,11.559h-169.02
		v30.623h165.511c0.532,9.829,2.604,18.348,5.356,25.39H119.334z"/>
</g>
<g>
</g>
<g>
</g>
<g>
</g>
<g>
</g>
<g>
</g>
<g>
</g>
<g>
</g>
<g>
</g>
<g>
</g>
<g>
</g>
<g>
</g>
<g>
</g>
<g>
</g>
<g>
</g>
<g>
</g>
</symbol><symbol id="icon-bookmark" viewBox="0 0 469.513 469.513">
<g>
	<g>
		<path d="M370.757,0h-272c-9.35,0-17,7.65-17,17v435.483c0,7.083,4.25,13.317,10.767,15.867c6.517,2.55,13.883,0.85,18.7-4.533
			L238.157,324.7l119.85,138.833c3.4,3.683,7.933,5.95,12.75,5.95c1.983,0,3.967-0.283,5.95-1.133
			c6.517-2.55,11.05-8.783,11.05-15.867V17C387.757,7.65,380.107,0,370.757,0z M353.757,406.867L251.473,288.15
			c-3.117-3.683-7.65-5.95-12.75-5.95c-4.817,0-9.633,1.983-12.75,5.667L115.757,408.85V34h238V406.867z"/>
	</g>
</g>
<g>
</g>
<g>
</g>
<g>
</g>
<g>
</g>
<g>
</g>
<g>
</g>
<g>
</g>
<g>
</g>
<g>
</g>
<g>
</g>
<g>
</g>
<g>
</g>
<g>
</g>
<g>
</g>
<g>
</g>
</symbol><symbol id="icon-camera" viewBox="0 0 487.7 487.7">
<g>
	<g>
		<path d="M480.5,151.65c-2-1.1-48.8-25.4-126.8-40.1l-3-12.8c-7.8-33.5-37.3-57-71.8-57h-70.1c-34.4,0-63.9,23.4-71.8,57l-3,12.8
			c-78,14.6-124.8,39-126.8,40.1c-4.4,2.3-7.2,6.9-7.2,11.9v159c0,63.7,51.8,115.6,115.6,115.6c7.5,0,13.5-6,13.5-13.5
			s-6-13.5-13.5-13.5c-48.8,0-88.6-39.7-88.6-88.6v-150.5c16.2-7.4,59-24.9,120.5-35.5c5.3-0.9,9.6-5,10.8-10.2l5-21.5
			c5-21.2,23.6-36.1,45.5-36.1h70.1c21.8,0,40.5,14.8,45.5,36.1l5,21.5c1.2,5.3,5.5,9.3,10.8,10.2c61.3,10.6,104.2,28.1,120.5,35.5
			v150.5c0,48.8-39.7,88.6-88.6,88.6c-7.5,0-13.5,6-13.5,13.5s6,13.5,13.5,13.5c63.7,0,115.6-51.8,115.6-115.6v-159
			C487.7,158.55,485,153.95,480.5,151.65z"/>
		<path d="M44.2,124.05c1.4,0,2.8-0.2,4.2-0.7c14.2-4.7,29.1-8.9,44.3-12.5c7.3-1.7,11.7-9,10-16.2c-1.7-7.3-9-11.7-16.2-10
			c-15.9,3.8-31.6,8.2-46.6,13.1c-7.1,2.3-10.9,10-8.6,17C33.3,120.45,38.6,124.05,44.2,124.05z"/>
		<path d="M243.9,135.05c-85.7,0-155.4,69.7-155.4,155.4s69.7,155.5,155.4,155.5s155.4-69.7,155.4-155.4S329.6,135.05,243.9,135.05z
			 M243.9,418.95c-70.8,0-128.4-57.6-128.4-128.4s57.6-128.5,128.4-128.5s128.4,57.6,128.4,128.4S314.7,418.95,243.9,418.95z"/>
	</g>
</g>
<g>
</g>
<g>
</g>
<g>
</g>
<g>
</g>
<g>
</g>
<g>
</g>
<g>
</g>
<g>
</g>
<g>
</g>
<g>
</g>
<g>
</g>
<g>
</g>
<g>
</g>
<g>
</g>
<g>
</g>
</symbol><symbol id="icon-cancel" viewBox="0 0 475.2 475.2">
<g>
	<g>
		<path d="M405.6,69.6C360.7,24.7,301.1,0,237.6,0s-123.1,24.7-168,69.6S0,174.1,0,237.6s24.7,123.1,69.6,168s104.5,69.6,168,69.6
			s123.1-24.7,168-69.6s69.6-104.5,69.6-168S450.5,114.5,405.6,69.6z M386.5,386.5c-39.8,39.8-92.7,61.7-148.9,61.7
			s-109.1-21.9-148.9-61.7c-82.1-82.1-82.1-215.7,0-297.8C128.5,48.9,181.4,27,237.6,27s109.1,21.9,148.9,61.7
			C468.6,170.8,468.6,304.4,386.5,386.5z"/>
		<path d="M342.3,132.9c-5.3-5.3-13.8-5.3-19.1,0l-85.6,85.6L152,132.9c-5.3-5.3-13.8-5.3-19.1,0c-5.3,5.3-5.3,13.8,0,19.1
			l85.6,85.6l-85.6,85.6c-5.3,5.3-5.3,13.8,0,19.1c2.6,2.6,6.1,4,9.5,4s6.9-1.3,9.5-4l85.6-85.6l85.6,85.6c2.6,2.6,6.1,4,9.5,4
			c3.5,0,6.9-1.3,9.5-4c5.3-5.3,5.3-13.8,0-19.1l-85.4-85.6l85.6-85.6C347.6,146.7,347.6,138.2,342.3,132.9z"/>
	</g>
</g>
<g>
</g>
<g>
</g>
<g>
</g>
<g>
</g>
<g>
</g>
<g>
</g>
<g>
</g>
<g>
</g>
<g>
</g>
<g>
</g>
<g>
</g>
<g>
</g>
<g>
</g>
<g>
</g>
<g>
</g>
</symbol><symbol id="icon-chat" viewBox="0 0 477.6 477.6">
<g>
	<g>
		<path d="M407.583,70c-45.1-45.1-105-70-168.8-70s-123.7,24.9-168.8,70c-87,87-93.3,226-15.8,320.2c-10.7,21.9-23.3,36.5-37.6,43.5
			c-8.7,4.3-13.6,13.7-12.2,23.3c1.5,9.7,8.9,17.2,18.6,18.7c5.3,0.8,11,1.3,16.9,1.3l0,0c29.3,0,60.1-10.1,85.8-27.8
			c34.6,18.6,73.5,28.4,113.1,28.4c63.8,0,123.7-24.8,168.8-69.9s69.9-105.1,69.9-168.8S452.683,115.1,407.583,70z M388.483,388.5
			c-40,40-93.2,62-149.7,62c-37.8,0-74.9-10.1-107.2-29.1c-2.1-1.2-4.5-1.9-6.8-1.9c-2.9,0-5.9,1-8.3,2.8
			c-30.6,23.7-61.4,27.2-74.9,27.5c16.1-12,29.6-30.6,40.9-56.5c2.1-4.8,1.2-10.4-2.3-14.4c-74-83.6-70.1-211,8.9-290
			c40-40,93.2-62,149.7-62s109.7,22,149.7,62C471.083,171.6,471.083,306,388.483,388.5z"/>
		<path d="M338.783,160h-200c-7.5,0-13.5,6-13.5,13.5s6,13.5,13.5,13.5h200c7.5,0,13.5-6,13.5-13.5S346.183,160,338.783,160z"/>
		<path d="M338.783,225.3h-200c-7.5,0-13.5,6-13.5,13.5s6,13.5,13.5,13.5h200c7.5,0,13.5-6,13.5-13.5S346.183,225.3,338.783,225.3z"/>
		<path d="M338.783,290.6h-200c-7.5,0-13.5,6-13.5,13.5s6,13.5,13.5,13.5h200c7.5,0,13.5-6,13.5-13.5S346.183,290.6,338.783,290.6z"/>
	</g>
</g>
<g>
</g>
<g>
</g>
<g>
</g>
<g>
</g>
<g>
</g>
<g>
</g>
<g>
</g>
<g>
</g>
<g>
</g>
<g>
</g>
<g>
</g>
<g>
</g>
<g>
</g>
<g>
</g>
<g>
</g>
</symbol><symbol id="icon-download" viewBox="0 0 471.2 471.2">
<g>
	<g>
		<path d="M457.7,230.15c-7.5,0-13.5,6-13.5,13.5v122.8c0,33.4-27.2,60.5-60.5,60.5H87.5c-33.4,0-60.5-27.2-60.5-60.5v-124.8
			c0-7.5-6-13.5-13.5-13.5s-13.5,6-13.5,13.5v124.8c0,48.3,39.3,87.5,87.5,87.5h296.2c48.3,0,87.5-39.3,87.5-87.5v-122.8
			C471.2,236.25,465.2,230.15,457.7,230.15z"/>
		<path d="M226.1,346.75c2.6,2.6,6.1,4,9.5,4s6.9-1.3,9.5-4l85.8-85.8c5.3-5.3,5.3-13.8,0-19.1c-5.3-5.3-13.8-5.3-19.1,0l-62.7,62.8
			V30.75c0-7.5-6-13.5-13.5-13.5s-13.5,6-13.5,13.5v273.9l-62.8-62.8c-5.3-5.3-13.8-5.3-19.1,0c-5.3,5.3-5.3,13.8,0,19.1
			L226.1,346.75z"/>
	</g>
</g>
<g>
</g>
<g>
</g>
<g>
</g>
<g>
</g>
<g>
</g>
<g>
</g>
<g>
</g>
<g>
</g>
<g>
</g>
<g>
</g>
<g>
</g>
<g>
</g>
<g>
</g>
<g>
</g>
<g>
</g>
</symbol><symbol id="icon-email" viewBox="0 0 483.3 483.3">
<g>
	<g>
		<path d="M424.3,57.75H59.1c-32.6,0-59.1,26.5-59.1,59.1v249.6c0,32.6,26.5,59.1,59.1,59.1h365.1c32.6,0,59.1-26.5,59.1-59.1
			v-249.5C483.4,84.35,456.9,57.75,424.3,57.75z M456.4,366.45c0,17.7-14.4,32.1-32.1,32.1H59.1c-17.7,0-32.1-14.4-32.1-32.1v-249.5
			c0-17.7,14.4-32.1,32.1-32.1h365.1c17.7,0,32.1,14.4,32.1,32.1v249.5H456.4z"/>
		<path d="M304.8,238.55l118.2-106c5.5-5,6-13.5,1-19.1c-5-5.5-13.5-6-19.1-1l-163,146.3l-31.8-28.4c-0.1-0.1-0.2-0.2-0.2-0.3
			c-0.7-0.7-1.4-1.3-2.2-1.9L78.3,112.35c-5.6-5-14.1-4.5-19.1,1.1c-5,5.6-4.5,14.1,1.1,19.1l119.6,106.9L60.8,350.95
			c-5.4,5.1-5.7,13.6-0.6,19.1c2.7,2.8,6.3,4.3,9.9,4.3c3.3,0,6.6-1.2,9.2-3.6l120.9-113.1l32.8,29.3c2.6,2.3,5.8,3.4,9,3.4
			c3.2,0,6.5-1.2,9-3.5l33.7-30.2l120.2,114.2c2.6,2.5,6,3.7,9.3,3.7c3.6,0,7.1-1.4,9.8-4.2c5.1-5.4,4.9-14-0.5-19.1L304.8,238.55z"/>
	</g>
</g>
<g>
</g>
<g>
</g>
<g>
</g>
<g>
</g>
<g>
</g>
<g>
</g>
<g>
</g>
<g>
</g>
<g>
</g>
<g>
</g>
<g>
</g>
<g>
</g>
<g>
</g>
<g>
</g>
<g>
</g>
</symbol><symbol id="icon-file" viewBox="0 0 49.356 49.356">
<g>
	<g>
		<path style="fill:#010002;" d="M7.97,49.356h33.417c1.103,0,2-0.897,2-2V11.701c0-0.843-0.46-1.857-1.093-2.411l-9.559-8.383
			C32.135,0.382,31.121,0,30.324,0H7.97c-1.103,0-2,0.897-2,2v45.355C5.97,48.459,6.866,49.356,7.97,49.356z M32.304,4.519
			l5.881,5.159h-5.882L32.304,4.519z M8.97,3h20.333v7.678c0,1.103,0.897,2,2,2h9.084v33.678H8.97V3L8.97,3z"/>
	</g>
</g>
<g>
</g>
<g>
</g>
<g>
</g>
<g>
</g>
<g>
</g>
<g>
</g>
<g>
</g>
<g>
</g>
<g>
</g>
<g>
</g>
<g>
</g>
<g>
</g>
<g>
</g>
<g>
</g>
<g>
</g>
</symbol><symbol id="icon-folder" viewBox="0 0 481.2 481.2">
<g>
	<path d="M403.9,97.85h-114c-27.7,0-50.3-22.5-50.3-50.3c0-7.5-6-13.5-13.5-13.5H77.3c-42.6,0-77.3,34.7-77.3,77.3v258.5
		c0,42.6,34.7,77.3,77.3,77.3h326.6c42.6,0,77.3-34.7,77.3-77.3v-194.8C481.2,132.45,446.5,97.85,403.9,97.85z M454.2,369.75
		c0,27.7-22.5,50.3-50.3,50.3H77.3c-27.7,0-50.3-22.5-50.3-50.3v-258.4c0-27.7,22.5-50.3,50.3-50.3h136.5
		c6.4,36.2,38.1,63.8,76.1,63.8h114c27.7,0,50.3,22.5,50.3,50.3L454.2,369.75L454.2,369.75z"/>
</g>
<g>
</g>
<g>
</g>
<g>
</g>
<g>
</g>
<g>
</g>
<g>
</g>
<g>
</g>
<g>
</g>
<g>
</g>
<g>
</g>
<g>
</g>
<g>
</g>
<g>
</g>
<g>
</g>
<g>
</g>
</symbol><symbol id="icon-heart" viewBox="0 0 471.701 471.701">
<g>
	<path d="M433.601,67.001c-24.7-24.7-57.4-38.2-92.3-38.2s-67.7,13.6-92.4,38.3l-12.9,12.9l-13.1-13.1
		c-24.7-24.7-57.6-38.4-92.5-38.4c-34.8,0-67.6,13.6-92.2,38.2c-24.7,24.7-38.3,57.5-38.2,92.4c0,34.9,13.7,67.6,38.4,92.3
		l187.8,187.8c2.6,2.6,6.1,4,9.5,4c3.4,0,6.9-1.3,9.5-3.9l188.2-187.5c24.7-24.7,38.3-57.5,38.3-92.4
		C471.801,124.501,458.301,91.701,433.601,67.001z M414.401,232.701l-178.7,178l-178.3-178.3c-19.6-19.6-30.4-45.6-30.4-73.3
		s10.7-53.7,30.3-73.2c19.5-19.5,45.5-30.3,73.1-30.3c27.7,0,53.8,10.8,73.4,30.4l22.6,22.6c5.3,5.3,13.8,5.3,19.1,0l22.4-22.4
		c19.6-19.6,45.7-30.4,73.3-30.4c27.6,0,53.6,10.8,73.2,30.3c19.6,19.6,30.3,45.6,30.3,73.3
		C444.801,187.101,434.001,213.101,414.401,232.701z"/>
</g>
<g>
</g>
<g>
</g>
<g>
</g>
<g>
</g>
<g>
</g>
<g>
</g>
<g>
</g>
<g>
</g>
<g>
</g>
<g>
</g>
<g>
</g>
<g>
</g>
<g>
</g>
<g>
</g>
<g>
</g>
</symbol><symbol id="icon-link" viewBox="0 0 482.8 482.8">
<g>
	<g>
		<path d="M255.2,209.3c-5.3,5.3-5.3,13.8,0,19.1c21.9,21.9,21.9,57.5,0,79.4l-115,115c-21.9,21.9-57.5,21.9-79.4,0l-17.3-17.3
			c-21.9-21.9-21.9-57.5,0-79.4l115-115c5.3-5.3,5.3-13.8,0-19.1s-13.8-5.3-19.1,0l-115,115C8.7,322.7,0,343.6,0,365.8
			c0,22.2,8.6,43.1,24.4,58.8l17.3,17.3c16.2,16.2,37.5,24.3,58.8,24.3s42.6-8.1,58.8-24.3l115-115c32.4-32.4,32.4-85.2,0-117.6
			C269.1,204,260.5,204,255.2,209.3z"/>
		<path d="M458.5,58.2l-17.3-17.3c-32.4-32.4-85.2-32.4-117.6,0l-115,115c-32.4,32.4-32.4,85.2,0,117.6c5.3,5.3,13.8,5.3,19.1,0
			s5.3-13.8,0-19.1c-21.9-21.9-21.9-57.5,0-79.4l115-115c21.9-21.9,57.5-21.9,79.4,0l17.3,17.3c21.9,21.9,21.9,57.5,0,79.4l-115,115
			c-5.3,5.3-5.3,13.8,0,19.1c2.6,2.6,6.1,4,9.5,4s6.9-1.3,9.5-4l115-115c15.7-15.7,24.4-36.6,24.4-58.8
			C482.8,94.8,474.2,73.9,458.5,58.2z"/>
	</g>
</g>
<g>
</g>
<g>
</g>
<g>
</g>
<g>
</g>
<g>
</g>
<g>
</g>
<g>
</g>
<g>
</g>
<g>
</g>
<g>
</g>
<g>
</g>
<g>
</g>
<g>
</g>
<g>
</g>
<g>
</g>
</symbol><symbol id="icon-marker" viewBox="0 0 477 477">
<g>
	<g>
		<path d="M238.4,0C133,0,47.2,85.8,47.2,191.2c0,12,1.1,24.1,3.4,35.9c0.1,0.7,0.5,2.8,1.3,6.4c2.9,12.9,7.2,25.6,12.8,37.7
			c20.6,48.5,65.9,123,165.3,202.8c2.5,2,5.5,3,8.5,3s6-1,8.5-3c99.3-79.8,144.7-154.3,165.3-202.8c5.6-12.1,9.9-24.7,12.8-37.7
			c0.8-3.6,1.2-5.7,1.3-6.4c2.2-11.8,3.4-23.9,3.4-35.9C429.6,85.8,343.8,0,238.4,0z M399.6,222.4c0,0.2-0.1,0.4-0.1,0.6
			c-0.1,0.5-0.4,2-0.9,4.3c0,0.1,0,0.1,0,0.2c-2.5,11.2-6.2,22.1-11.1,32.6c-0.1,0.1-0.1,0.3-0.2,0.4
			c-18.7,44.3-59.7,111.9-148.9,185.6c-89.2-73.7-130.2-141.3-148.9-185.6c-0.1-0.1-0.1-0.3-0.2-0.4c-4.8-10.4-8.5-21.4-11.1-32.6
			c0-0.1,0-0.1,0-0.2c-0.6-2.3-0.8-3.8-0.9-4.3c0-0.2-0.1-0.4-0.1-0.7c-2-10.3-3-20.7-3-31.2c0-90.5,73.7-164.2,164.2-164.2
			s164.2,73.7,164.2,164.2C402.6,201.7,401.6,212.2,399.6,222.4z"/>
		<path d="M238.4,71.9c-66.9,0-121.4,54.5-121.4,121.4s54.5,121.4,121.4,121.4s121.4-54.5,121.4-121.4S305.3,71.9,238.4,71.9z
			 M238.4,287.7c-52.1,0-94.4-42.4-94.4-94.4s42.4-94.4,94.4-94.4s94.4,42.4,94.4,94.4S290.5,287.7,238.4,287.7z"/>
	</g>
</g>
<g>
</g>
<g>
</g>
<g>
</g>
<g>
</g>
<g>
</g>
<g>
</g>
<g>
</g>
<g>
</g>
<g>
</g>
<g>
</g>
<g>
</g>
<g>
</g>
<g>
</g>
<g>
</g>
<g>
</g>
</symbol><symbol id="icon-menu" viewBox="0 0 512 512">
<g>
	<g>
		<path d="M491.318,235.318H20.682C9.26,235.318,0,244.577,0,256s9.26,20.682,20.682,20.682h470.636
			c11.423,0,20.682-9.259,20.682-20.682C512,244.578,502.741,235.318,491.318,235.318z"/>
	</g>
</g>
<g>
	<g>
		<path d="M491.318,78.439H20.682C9.26,78.439,0,87.699,0,99.121c0,11.422,9.26,20.682,20.682,20.682h470.636
			c11.423,0,20.682-9.26,20.682-20.682C512,87.699,502.741,78.439,491.318,78.439z"/>
	</g>
</g>
<g>
	<g>
		<path d="M491.318,392.197H20.682C9.26,392.197,0,401.456,0,412.879s9.26,20.682,20.682,20.682h470.636
			c11.423,0,20.682-9.259,20.682-20.682S502.741,392.197,491.318,392.197z"/>
	</g>
</g>
<g>
</g>
<g>
</g>
<g>
</g>
<g>
</g>
<g>
</g>
<g>
</g>
<g>
</g>
<g>
</g>
<g>
</g>
<g>
</g>
<g>
</g>
<g>
</g>
<g>
</g>
<g>
</g>
<g>
</g>
</symbol><symbol id="icon-next" viewBox="0 0 477.175 477.175">
<g>
	<path d="M360.731,229.075l-225.1-225.1c-5.3-5.3-13.8-5.3-19.1,0s-5.3,13.8,0,19.1l215.5,215.5l-215.5,215.5
		c-5.3,5.3-5.3,13.8,0,19.1c2.6,2.6,6.1,4,9.5,4c3.4,0,6.9-1.3,9.5-4l225.1-225.1C365.931,242.875,365.931,234.275,360.731,229.075z
		"/>
</g>
<g>
</g>
<g>
</g>
<g>
</g>
<g>
</g>
<g>
</g>
<g>
</g>
<g>
</g>
<g>
</g>
<g>
</g>
<g>
</g>
<g>
</g>
<g>
</g>
<g>
</g>
<g>
</g>
<g>
</g>
</symbol><symbol id="icon-notebook" viewBox="0 0 235.588 235.588">
<g>
	<path d="M209.447,0H52.018C33.613,0,18.641,14.974,18.641,33.38v168.822c0,18.4,14.972,33.377,33.377,33.386h157.43
		c4.143,0,7.5-3.358,7.5-7.5v-51.764V59.266V7.5C216.947,3.358,213.59,0,209.447,0z M52.018,15h149.93v44.266v109.559H52.018
		c-6.786,0-13.103,2.041-18.377,5.534V33.38C33.641,23.245,41.885,15,52.018,15z M52.021,220.588
		c-10.136-0.005-18.381-8.252-18.381-18.386c0-10.134,8.244-18.378,18.377-18.378h149.93v10.878H52.018c-4.143,0-7.5,3.358-7.5,7.5
		c0,4.142,3.357,7.5,7.5,7.5h149.93v10.886H52.021z"/>
	<path d="M61.957,93.202h111.674c4.143,0,7.5-3.358,7.5-7.5V48.803c0-4.142-3.357-7.5-7.5-7.5H61.957c-4.143,0-7.5,3.358-7.5,7.5
		v36.899C54.457,89.844,57.814,93.202,61.957,93.202z M69.457,56.303h96.674v21.899H69.457V56.303z"/>
</g>
<g>
</g>
<g>
</g>
<g>
</g>
<g>
</g>
<g>
</g>
<g>
</g>
<g>
</g>
<g>
</g>
<g>
</g>
<g>
</g>
<g>
</g>
<g>
</g>
<g>
</g>
<g>
</g>
<g>
</g>
</symbol><symbol id="icon-open-book" viewBox="0 0 511.998 511.998">
<g>
	<g>
		<path d="M503.169,147.785L461,128.758V99.797c0-5.889-3.446-11.233-8.81-13.663c-30.339-13.745-65.33-21.01-101.19-21.01
			c-33.446,0-66.135,6.319-95,18.322c-28.865-12.003-61.554-18.322-95-18.322c-35.86,0-70.851,7.265-101.19,21.01
			C54.446,88.564,51,93.909,51,99.797v28.961L8.831,147.785C3.456,150.21,0,155.56,0,161.457v260.399
			c0,8.53,4.278,16.385,11.444,21.011c7.062,4.56,15.971,5.333,23.835,1.782l56.818-25.639c20.15-9.09,43.839-13.894,68.503-13.894
			c49.858,0,76.132,18.527,89.23,23.242c3.923,1.77,8.417,1.77,12.339,0c13.035-4.692,39.404-23.242,89.23-23.242
			c24.664,0,48.352,4.804,68.5,13.893l56.815,25.637c7.767,3.507,16.68,2.844,23.84-1.779c7.166-4.626,11.444-12.48,11.444-21.011
			V161.457C512,155.56,508.544,150.21,503.169,147.785z M271,109.751c49.593-19.481,110.406-19.491,160-0.011
			c0,7.369,0,207.355,0,228.094c-24.975-8.352-52.225-12.709-80-12.709c-27.777,0-55.024,4.373-80,12.726V109.751z M81,109.74
			c49.594-19.479,110.407-19.469,160,0.012V337.85c-24.976-8.353-52.223-12.726-80-12.726c-27.775,0-55.025,4.357-80,12.709
			C81,330.895,81,121.68,81,109.74z M482,414.119l-49.763-22.455c-23.999-10.824-51.952-16.546-80.837-16.546
			c-55.328,0-86.96,20.181-95.4,23.113c-8.077-2.807-39.937-23.113-95.4-23.113c-28.886,0-56.839,5.722-80.84,16.547L30,414.119
			V171.146l21-9.476v198.127c0,10.864,11.242,18.168,21.19,13.663c53.95-24.441,123.67-24.441,177.62,0
			c3.871,1.763,8.498,1.768,12.38,0c53.95-24.441,123.67-24.441,177.62,0c9.881,4.476,21.19-2.749,21.19-13.663V161.67l21,9.476
			V414.119z"/>
	</g>
</g>
<g>
</g>
<g>
</g>
<g>
</g>
<g>
</g>
<g>
</g>
<g>
</g>
<g>
</g>
<g>
</g>
<g>
</g>
<g>
</g>
<g>
</g>
<g>
</g>
<g>
</g>
<g>
</g>
<g>
</g>
</symbol><symbol id="icon-options" viewBox="0 0 478.703 478.703">
<g>
	<g>
		<path d="M454.2,189.101l-33.6-5.7c-3.5-11.3-8-22.2-13.5-32.6l19.8-27.7c8.4-11.8,7.1-27.9-3.2-38.1l-29.8-29.8
			c-5.6-5.6-13-8.7-20.9-8.7c-6.2,0-12.1,1.9-17.1,5.5l-27.8,19.8c-10.8-5.7-22.1-10.4-33.8-13.9l-5.6-33.2
			c-2.4-14.3-14.7-24.7-29.2-24.7h-42.1c-14.5,0-26.8,10.4-29.2,24.7l-5.8,34c-11.2,3.5-22.1,8.1-32.5,13.7l-27.5-19.8
			c-5-3.6-11-5.5-17.2-5.5c-7.9,0-15.4,3.1-20.9,8.7l-29.9,29.8c-10.2,10.2-11.6,26.3-3.2,38.1l20,28.1
			c-5.5,10.5-9.9,21.4-13.3,32.7l-33.2,5.6c-14.3,2.4-24.7,14.7-24.7,29.2v42.1c0,14.5,10.4,26.8,24.7,29.2l34,5.8
			c3.5,11.2,8.1,22.1,13.7,32.5l-19.7,27.4c-8.4,11.8-7.1,27.9,3.2,38.1l29.8,29.8c5.6,5.6,13,8.7,20.9,8.7c6.2,0,12.1-1.9,17.1-5.5
			l28.1-20c10.1,5.3,20.7,9.6,31.6,13l5.6,33.6c2.4,14.3,14.7,24.7,29.2,24.7h42.2c14.5,0,26.8-10.4,29.2-24.7l5.7-33.6
			c11.3-3.5,22.2-8,32.6-13.5l27.7,19.8c5,3.6,11,5.5,17.2,5.5l0,0c7.9,0,15.3-3.1,20.9-8.7l29.8-29.8c10.2-10.2,11.6-26.3,3.2-38.1
			l-19.8-27.8c5.5-10.5,10.1-21.4,13.5-32.6l33.6-5.6c14.3-2.4,24.7-14.7,24.7-29.2v-42.1
			C478.9,203.801,468.5,191.501,454.2,189.101z M451.9,260.401c0,1.3-0.9,2.4-2.2,2.6l-42,7c-5.3,0.9-9.5,4.8-10.8,9.9
			c-3.8,14.7-9.6,28.8-17.4,41.9c-2.7,4.6-2.5,10.3,0.6,14.7l24.7,34.8c0.7,1,0.6,2.5-0.3,3.4l-29.8,29.8c-0.7,0.7-1.4,0.8-1.9,0.8
			c-0.6,0-1.1-0.2-1.5-0.5l-34.7-24.7c-4.3-3.1-10.1-3.3-14.7-0.6c-13.1,7.8-27.2,13.6-41.9,17.4c-5.2,1.3-9.1,5.6-9.9,10.8l-7.1,42
			c-0.2,1.3-1.3,2.2-2.6,2.2h-42.1c-1.3,0-2.4-0.9-2.6-2.2l-7-42c-0.9-5.3-4.8-9.5-9.9-10.8c-14.3-3.7-28.1-9.4-41-16.8
			c-2.1-1.2-4.5-1.8-6.8-1.8c-2.7,0-5.5,0.8-7.8,2.5l-35,24.9c-0.5,0.3-1,0.5-1.5,0.5c-0.4,0-1.2-0.1-1.9-0.8l-29.8-29.8
			c-0.9-0.9-1-2.3-0.3-3.4l24.6-34.5c3.1-4.4,3.3-10.2,0.6-14.8c-7.8-13-13.8-27.1-17.6-41.8c-1.4-5.1-5.6-9-10.8-9.9l-42.3-7.2
			c-1.3-0.2-2.2-1.3-2.2-2.6v-42.1c0-1.3,0.9-2.4,2.2-2.6l41.7-7c5.3-0.9,9.6-4.8,10.9-10c3.7-14.7,9.4-28.9,17.1-42
			c2.7-4.6,2.4-10.3-0.7-14.6l-24.9-35c-0.7-1-0.6-2.5,0.3-3.4l29.8-29.8c0.7-0.7,1.4-0.8,1.9-0.8c0.6,0,1.1,0.2,1.5,0.5l34.5,24.6
			c4.4,3.1,10.2,3.3,14.8,0.6c13-7.8,27.1-13.8,41.8-17.6c5.1-1.4,9-5.6,9.9-10.8l7.2-42.3c0.2-1.3,1.3-2.2,2.6-2.2h42.1
			c1.3,0,2.4,0.9,2.6,2.2l7,41.7c0.9,5.3,4.8,9.6,10,10.9c15.1,3.8,29.5,9.7,42.9,17.6c4.6,2.7,10.3,2.5,14.7-0.6l34.5-24.8
			c0.5-0.3,1-0.5,1.5-0.5c0.4,0,1.2,0.1,1.9,0.8l29.8,29.8c0.9,0.9,1,2.3,0.3,3.4l-24.7,34.7c-3.1,4.3-3.3,10.1-0.6,14.7
			c7.8,13.1,13.6,27.2,17.4,41.9c1.3,5.2,5.6,9.1,10.8,9.9l42,7.1c1.3,0.2,2.2,1.3,2.2,2.6v42.1H451.9z"/>
		<path d="M239.4,136.001c-57,0-103.3,46.3-103.3,103.3s46.3,103.3,103.3,103.3s103.3-46.3,103.3-103.3S296.4,136.001,239.4,136.001
			z M239.4,315.601c-42.1,0-76.3-34.2-76.3-76.3s34.2-76.3,76.3-76.3s76.3,34.2,76.3,76.3S281.5,315.601,239.4,315.601z"/>
	</g>
</g>
<g>
</g>
<g>
</g>
<g>
</g>
<g>
</g>
<g>
</g>
<g>
</g>
<g>
</g>
<g>
</g>
<g>
</g>
<g>
</g>
<g>
</g>
<g>
</g>
<g>
</g>
<g>
</g>
<g>
</g>
</symbol><symbol id="icon-pencil" viewBox="0 0 469.331 469.331">
<g>
	<path d="M438.931,30.403c-40.4-40.5-106.1-40.5-146.5,0l-268.6,268.5c-2.1,2.1-3.4,4.8-3.8,7.7l-19.9,147.4
		c-0.6,4.2,0.9,8.4,3.8,11.3c2.5,2.5,6,4,9.5,4c0.6,0,1.2,0,1.8-0.1l88.8-12c7.4-1,12.6-7.8,11.6-15.2c-1-7.4-7.8-12.6-15.2-11.6
		l-71.2,9.6l13.9-102.8l108.2,108.2c2.5,2.5,6,4,9.5,4s7-1.4,9.5-4l268.6-268.5c19.6-19.6,30.4-45.6,30.4-73.3
		S458.531,49.903,438.931,30.403z M297.631,63.403l45.1,45.1l-245.1,245.1l-45.1-45.1L297.631,63.403z M160.931,416.803l-44.1-44.1
		l245.1-245.1l44.1,44.1L160.931,416.803z M424.831,152.403l-107.9-107.9c13.7-11.3,30.8-17.5,48.8-17.5c20.5,0,39.7,8,54.2,22.4
		s22.4,33.7,22.4,54.2C442.331,121.703,436.131,138.703,424.831,152.403z"/>
</g>
<g>
</g>
<g>
</g>
<g>
</g>
<g>
</g>
<g>
</g>
<g>
</g>
<g>
</g>
<g>
</g>
<g>
</g>
<g>
</g>
<g>
</g>
<g>
</g>
<g>
</g>
<g>
</g>
<g>
</g>
</symbol><symbol id="icon-print" viewBox="0 0 482.5 482.5">
<g>
	<g>
		<path d="M399.25,98.9h-12.4V71.3c0-39.3-32-71.3-71.3-71.3h-149.7c-39.3,0-71.3,32-71.3,71.3v27.6h-11.3
			c-39.3,0-71.3,32-71.3,71.3v115c0,39.3,32,71.3,71.3,71.3h11.2v90.4c0,19.6,16,35.6,35.6,35.6h221.1c19.6,0,35.6-16,35.6-35.6
			v-90.4h12.5c39.3,0,71.3-32,71.3-71.3v-115C470.55,130.9,438.55,98.9,399.25,98.9z M121.45,71.3c0-24.4,19.9-44.3,44.3-44.3h149.6
			c24.4,0,44.3,19.9,44.3,44.3v27.6h-238.2V71.3z M359.75,447.1c0,4.7-3.9,8.6-8.6,8.6h-221.1c-4.7,0-8.6-3.9-8.6-8.6V298h238.3
			V447.1z M443.55,285.3c0,24.4-19.9,44.3-44.3,44.3h-12.4V298h17.8c7.5,0,13.5-6,13.5-13.5s-6-13.5-13.5-13.5h-330
			c-7.5,0-13.5,6-13.5,13.5s6,13.5,13.5,13.5h19.9v31.6h-11.3c-24.4,0-44.3-19.9-44.3-44.3v-115c0-24.4,19.9-44.3,44.3-44.3h316
			c24.4,0,44.3,19.9,44.3,44.3V285.3z"/>
		<path d="M154.15,364.4h171.9c7.5,0,13.5-6,13.5-13.5s-6-13.5-13.5-13.5h-171.9c-7.5,0-13.5,6-13.5,13.5S146.75,364.4,154.15,364.4
			z"/>
		<path d="M327.15,392.6h-172c-7.5,0-13.5,6-13.5,13.5s6,13.5,13.5,13.5h171.9c7.5,0,13.5-6,13.5-13.5S334.55,392.6,327.15,392.6z"/>
		<path d="M398.95,151.9h-27.4c-7.5,0-13.5,6-13.5,13.5s6,13.5,13.5,13.5h27.4c7.5,0,13.5-6,13.5-13.5S406.45,151.9,398.95,151.9z"/>
	</g>
</g>
<g>
</g>
<g>
</g>
<g>
</g>
<g>
</g>
<g>
</g>
<g>
</g>
<g>
</g>
<g>
</g>
<g>
</g>
<g>
</g>
<g>
</g>
<g>
</g>
<g>
</g>
<g>
</g>
<g>
</g>
</symbol><symbol id="icon-reload" viewBox="0 0 489.711 489.711">
<g>
	<g>
		<path d="M112.156,97.111c72.3-65.4,180.5-66.4,253.8-6.7l-58.1,2.2c-7.5,0.3-13.3,6.5-13,14c0.3,7.3,6.3,13,13.5,13
			c0.2,0,0.3,0,0.5,0l89.2-3.3c7.3-0.3,13-6.2,13-13.5v-1c0-0.2,0-0.3,0-0.5v-0.1l0,0l-3.3-88.2c-0.3-7.5-6.6-13.3-14-13
			c-7.5,0.3-13.3,6.5-13,14l2.1,55.3c-36.3-29.7-81-46.9-128.8-49.3c-59.2-3-116.1,17.3-160,57.1c-60.4,54.7-86,137.9-66.8,217.1
			c1.5,6.2,7,10.3,13.1,10.3c1.1,0,2.1-0.1,3.2-0.4c7.2-1.8,11.7-9.1,9.9-16.3C36.656,218.211,59.056,145.111,112.156,97.111z"/>
		<path d="M462.456,195.511c-1.8-7.2-9.1-11.7-16.3-9.9c-7.2,1.8-11.7,9.1-9.9,16.3c16.9,69.6-5.6,142.7-58.7,190.7
			c-37.3,33.7-84.1,50.3-130.7,50.3c-44.5,0-88.9-15.1-124.7-44.9l58.8-5.3c7.4-0.7,12.9-7.2,12.2-14.7s-7.2-12.9-14.7-12.2l-88.9,8
			c-7.4,0.7-12.9,7.2-12.2,14.7l8,88.9c0.6,7,6.5,12.3,13.4,12.3c0.4,0,0.8,0,1.2-0.1c7.4-0.7,12.9-7.2,12.2-14.7l-4.8-54.1
			c36.3,29.4,80.8,46.5,128.3,48.9c3.8,0.2,7.6,0.3,11.3,0.3c55.1,0,107.5-20.2,148.7-57.4
			C456.056,357.911,481.656,274.811,462.456,195.511z"/>
	</g>
</g>
<g>
</g>
<g>
</g>
<g>
</g>
<g>
</g>
<g>
</g>
<g>
</g>
<g>
</g>
<g>
</g>
<g>
</g>
<g>
</g>
<g>
</g>
<g>
</g>
<g>
</g>
<g>
</g>
<g>
</g>
</symbol><symbol id="icon-search" viewBox="0 0 451 451">
<g>
	<path d="M447.05,428l-109.6-109.6c29.4-33.8,47.2-77.9,47.2-126.1C384.65,86.2,298.35,0,192.35,0C86.25,0,0.05,86.3,0.05,192.3
		s86.3,192.3,192.3,192.3c48.2,0,92.3-17.8,126.1-47.2L428.05,447c2.6,2.6,6.1,4,9.5,4s6.9-1.3,9.5-4
		C452.25,441.8,452.25,433.2,447.05,428z M26.95,192.3c0-91.2,74.2-165.3,165.3-165.3c91.2,0,165.3,74.2,165.3,165.3
		s-74.1,165.4-165.3,165.4C101.15,357.7,26.95,283.5,26.95,192.3z"/>
</g>
<g>
</g>
<g>
</g>
<g>
</g>
<g>
</g>
<g>
</g>
<g>
</g>
<g>
</g>
<g>
</g>
<g>
</g>
<g>
</g>
<g>
</g>
<g>
</g>
<g>
</g>
<g>
</g>
<g>
</g>
</symbol><symbol id="icon-settings" viewBox="0 0 480.3 480.3">
<g>
	<g>
		<path d="M254.15,234.1V13.5c0-7.5-6-13.5-13.5-13.5s-13.5,6-13.5,13.5v220.6c-31.3,6.3-55,34-55,67.2s23.7,60.9,55,67.2v98.2
			c0,7.5,6,13.5,13.5,13.5s13.5-6,13.5-13.5v-98.2c31.3-6.3,55-34,55-67.2C309.15,268.2,285.55,240.4,254.15,234.1z M240.65,342.8
			c-22.9,0-41.5-18.6-41.5-41.5s18.6-41.5,41.5-41.5s41.5,18.6,41.5,41.5S263.55,342.8,240.65,342.8z"/>
		<path d="M88.85,120.9V13.5c0-7.5-6-13.5-13.5-13.5s-13.5,6-13.5,13.5v107.4c-31.3,6.3-55,34-55,67.2s23.7,60.9,55,67.2v211.4
			c0,7.5,6,13.5,13.5,13.5s13.5-6,13.5-13.5V255.2c31.3-6.3,55-34,55-67.2S120.15,127.2,88.85,120.9z M75.35,229.6
			c-22.9,0-41.5-18.6-41.5-41.5s18.6-41.5,41.5-41.5s41.5,18.6,41.5,41.5S98.15,229.6,75.35,229.6z"/>
		<path d="M418.45,120.9V13.5c0-7.5-6-13.5-13.5-13.5s-13.5,6-13.5,13.5v107.4c-31.3,6.3-55,34-55,67.2s23.7,60.9,55,67.2v211.5
			c0,7.5,6,13.5,13.5,13.5s13.5-6,13.5-13.5V255.2c31.3-6.3,55-34,55-67.2S449.85,127.2,418.45,120.9z M404.95,229.6
			c-22.9,0-41.5-18.6-41.5-41.5s18.6-41.5,41.5-41.5s41.5,18.6,41.5,41.5S427.85,229.6,404.95,229.6z"/>
	</g>
</g>
<g>
</g>
<g>
</g>
<g>
</g>
<g>
</g>
<g>
</g>
<g>
</g>
<g>
</g>
<g>
</g>
<g>
</g>
<g>
</g>
<g>
</g>
<g>
</g>
<g>
</g>
<g>
</g>
<g>
</g>
</symbol><symbol id="icon-share" viewBox="0 0 481.6 481.6">
<g>
	<path d="M381.6,309.4c-27.7,0-52.4,13.2-68.2,33.6l-132.3-73.9c3.1-8.9,4.8-18.5,4.8-28.4c0-10-1.7-19.5-4.9-28.5l132.2-73.8
		c15.7,20.5,40.5,33.8,68.3,33.8c47.4,0,86.1-38.6,86.1-86.1S429,0,381.5,0s-86.1,38.6-86.1,86.1c0,10,1.7,19.6,4.9,28.5
		l-132.1,73.8c-15.7-20.6-40.5-33.8-68.3-33.8c-47.4,0-86.1,38.6-86.1,86.1s38.7,86.1,86.2,86.1c27.8,0,52.6-13.3,68.4-33.9
		l132.2,73.9c-3.2,9-5,18.7-5,28.7c0,47.4,38.6,86.1,86.1,86.1s86.1-38.6,86.1-86.1S429.1,309.4,381.6,309.4z M381.6,27.1
		c32.6,0,59.1,26.5,59.1,59.1s-26.5,59.1-59.1,59.1s-59.1-26.5-59.1-59.1S349.1,27.1,381.6,27.1z M100,299.8
		c-32.6,0-59.1-26.5-59.1-59.1s26.5-59.1,59.1-59.1s59.1,26.5,59.1,59.1S132.5,299.8,100,299.8z M381.6,454.5
		c-32.6,0-59.1-26.5-59.1-59.1c0-32.6,26.5-59.1,59.1-59.1s59.1,26.5,59.1,59.1C440.7,428,414.2,454.5,381.6,454.5z"/>
</g>
<g>
</g>
<g>
</g>
<g>
</g>
<g>
</g>
<g>
</g>
<g>
</g>
<g>
</g>
<g>
</g>
<g>
</g>
<g>
</g>
<g>
</g>
<g>
</g>
<g>
</g>
<g>
</g>
<g>
</g>
</symbol><symbol id="icon-sound" viewBox="0 0 485 485">
<g>
	<g>
		<path d="M282.5,55.15c-33.5,0-66.3,8.9-95,25.8c-25.6,15.1-47.3,36.1-63.2,61.1H52.7c-29.1,0-52.7,23.6-52.7,52.7v95.5
			c0,29.1,23.6,52.7,52.7,52.7h71.6c15.9,25,37.6,46,63.2,61.1c28.7,16.9,61.5,25.8,95,25.8c7.5,0,13.5-6,13.5-13.5V68.65
			C296,61.25,290,55.15,282.5,55.15z M118.4,315.95H52.7c-14.2,0-25.7-11.5-25.7-25.7v-95.5c0-14.2,11.5-25.7,25.7-25.7h65.7V315.95
			z M269,402.35c-50.7-4.3-96.9-32.8-123.6-76.6v-166.4c26.7-43.8,72.9-72.3,123.6-76.6V402.35z"/>
		<path d="M348.9,137.95c-6.1-4.3-14.5-2.8-18.8,3.4c-4.3,6.1-2.8,14.5,3.4,18.8c27,18.8,43.1,49.7,43.1,82.5s-16.1,63.7-43.1,82.5
			c-6.1,4.3-7.6,12.7-3.4,18.8c2.6,3.8,6.8,5.8,11.1,5.8c2.7,0,5.4-0.8,7.7-2.4c34.2-23.9,54.7-63,54.7-104.6
			S383.1,161.75,348.9,137.95z"/>
		<path d="M401.1,82.05c-6.1-4.3-14.5-2.8-18.8,3.4c-4.3,6.1-2.8,14.5,3.4,18.8c45.3,31.6,72.3,83.3,72.3,138.3
			s-27,106.8-72.3,138.3c-6.1,4.3-7.6,12.7-3.4,18.8c2.6,3.8,6.8,5.8,11.1,5.8c2.7,0,5.4-0.8,7.7-2.4
			c52.5-36.6,83.9-96.6,83.9-160.5S453.7,118.65,401.1,82.05z"/>
	</g>
</g>
<g>
</g>
<g>
</g>
<g>
</g>
<g>
</g>
<g>
</g>
<g>
</g>
<g>
</g>
<g>
</g>
<g>
</g>
<g>
</g>
<g>
</g>
<g>
</g>
<g>
</g>
<g>
</g>
<g>
</g>
</symbol><symbol id="icon-star" viewBox="0 0 487.222 487.222">
<g>
	<path d="M486.554,186.811c-1.6-4.9-5.8-8.4-10.9-9.2l-152-21.6l-68.4-137.5c-2.3-4.6-7-7.5-12.1-7.5l0,0c-5.1,0-9.8,2.9-12.1,7.6
		l-67.5,137.9l-152,22.6c-5.1,0.8-9.3,4.3-10.9,9.2s-0.2,10.3,3.5,13.8l110.3,106.9l-25.5,151.4c-0.9,5.1,1.2,10.2,5.4,13.2
		c2.3,1.7,5.1,2.6,7.9,2.6c2.2,0,4.3-0.5,6.3-1.6l135.7-71.9l136.1,71.1c2,1,4.1,1.5,6.2,1.5l0,0c7.4,0,13.5-6.1,13.5-13.5
		c0-1.1-0.1-2.1-0.4-3.1l-26.3-150.5l109.6-107.5C486.854,197.111,488.154,191.711,486.554,186.811z M349.554,293.911
		c-3.2,3.1-4.6,7.6-3.8,12l22.9,131.3l-118.2-61.7c-3.9-2.1-8.6-2-12.6,0l-117.8,62.4l22.1-131.5c0.7-4.4-0.7-8.8-3.9-11.9
		l-95.6-92.8l131.9-19.6c4.4-0.7,8.2-3.4,10.1-7.4l58.6-119.7l59.4,119.4c2,4,5.8,6.7,10.2,7.4l132,18.8L349.554,293.911z"/>
</g>
<g>
</g>
<g>
</g>
<g>
</g>
<g>
</g>
<g>
</g>
<g>
</g>
<g>
</g>
<g>
</g>
<g>
</g>
<g>
</g>
<g>
</g>
<g>
</g>
<g>
</g>
<g>
</g>
<g>
</g>
</symbol><symbol id="icon-tag" viewBox="0 0 487.85 487.85">
<g>
	<path d="M479,215.275l-83.5-113.9c-11-15-33.3-26.3-51.8-26.3H39.2c-21.6,0-39.2,17.6-39.2,39.2v259.3c0,21.6,17.6,39.2,39.2,39.2
		h304.5c18.6,0,40.9-11.3,51.8-26.3l83.5-113.9C490.8,256.575,490.8,231.375,479,215.275z M457.2,256.775l-83.5,113.9
		c-5.8,8-20.2,15.2-30.1,15.2H39.2c-6.7,0-12.2-5.5-12.2-12.2v-259.4c0-6.7,5.5-12.2,12.2-12.2h304.5c9.9,0,24.2,7.3,30.1,15.2
		l83.5,113.9C462.1,237.875,462.1,250.075,457.2,256.775z"/>
</g>
<g>
</g>
<g>
</g>
<g>
</g>
<g>
</g>
<g>
</g>
<g>
</g>
<g>
</g>
<g>
</g>
<g>
</g>
<g>
</g>
<g>
</g>
<g>
</g>
<g>
</g>
<g>
</g>
<g>
</g>
</symbol><symbol id="icon-trash" viewBox="0 0 486.4 486.4">
<g>
	<g>
		<path d="M446,70H344.8V53.5c0-29.5-24-53.5-53.5-53.5h-96.2c-29.5,0-53.5,24-53.5,53.5V70H40.4c-7.5,0-13.5,6-13.5,13.5
			S32.9,97,40.4,97h24.4v317.2c0,39.8,32.4,72.2,72.2,72.2h212.4c39.8,0,72.2-32.4,72.2-72.2V97H446c7.5,0,13.5-6,13.5-13.5
			S453.5,70,446,70z M168.6,53.5c0-14.6,11.9-26.5,26.5-26.5h96.2c14.6,0,26.5,11.9,26.5,26.5V70H168.6V53.5z M394.6,414.2
			c0,24.9-20.3,45.2-45.2,45.2H137c-24.9,0-45.2-20.3-45.2-45.2V97h302.9v317.2H394.6z"/>
		<path d="M243.2,411c7.5,0,13.5-6,13.5-13.5V158.9c0-7.5-6-13.5-13.5-13.5s-13.5,6-13.5,13.5v238.5
			C229.7,404.9,235.7,411,243.2,411z"/>
		<path d="M155.1,396.1c7.5,0,13.5-6,13.5-13.5V173.7c0-7.5-6-13.5-13.5-13.5s-13.5,6-13.5,13.5v208.9
			C141.6,390.1,147.7,396.1,155.1,396.1z"/>
		<path d="M331.3,396.1c7.5,0,13.5-6,13.5-13.5V173.7c0-7.5-6-13.5-13.5-13.5s-13.5,6-13.5,13.5v208.9
			C317.8,390.1,323.8,396.1,331.3,396.1z"/>
	</g>
</g>
<g>
</g>
<g>
</g>
<g>
</g>
<g>
</g>
<g>
</g>
<g>
</g>
<g>
</g>
<g>
</g>
<g>
</g>
<g>
</g>
<g>
</g>
<g>
</g>
<g>
</g>
<g>
</g>
<g>
</g>
</symbol><symbol id="icon-upload-cloud" viewBox="0 0 486.3 486.3">
<g>
	<g>
		<path d="M395.5,135.8c-5.2-30.9-20.5-59.1-43.9-80.5c-26-23.8-59.8-36.9-95-36.9c-27.2,0-53.7,7.8-76.4,22.5
			c-18.9,12.2-34.6,28.7-45.7,48.1c-4.8-0.9-9.8-1.4-14.8-1.4c-42.5,0-77.1,34.6-77.1,77.1c0,5.5,0.6,10.8,1.6,16
			C16.7,200.7,0,232.9,0,267.2c0,27.7,10.3,54.6,29.1,75.9c19.3,21.8,44.8,34.7,72,36.2c0.3,0,0.5,0,0.8,0h86
			c7.5,0,13.5-6,13.5-13.5s-6-13.5-13.5-13.5h-85.6C61.4,349.8,27,310.9,27,267.1c0-28.3,15.2-54.7,39.7-69
			c5.7-3.3,8.1-10.2,5.9-16.4c-2-5.4-3-11.1-3-17.2c0-27.6,22.5-50.1,50.1-50.1c5.9,0,11.7,1,17.1,3c6.6,2.4,13.9-0.6,16.9-6.9
			c18.7-39.7,59.1-65.3,103-65.3c59,0,107.7,44.2,113.3,102.8c0.6,6.1,5.2,11,11.2,12c44.5,7.6,78.1,48.7,78.1,95.6
			c0,49.7-39.1,92.9-87.3,96.6h-73.7c-7.5,0-13.5,6-13.5,13.5s6,13.5,13.5,13.5h74.2c0.3,0,0.6,0,1,0c30.5-2.2,59-16.2,80.2-39.6
			c21.1-23.2,32.6-53,32.6-84C486.2,199.5,447.9,149.6,395.5,135.8z"/>
		<path d="M324.2,280c5.3-5.3,5.3-13.8,0-19.1l-71.5-71.5c-2.5-2.5-6-4-9.5-4s-7,1.4-9.5,4l-71.5,71.5c-5.3,5.3-5.3,13.8,0,19.1
			c2.6,2.6,6.1,4,9.5,4s6.9-1.3,9.5-4l48.5-48.5v222.9c0,7.5,6,13.5,13.5,13.5s13.5-6,13.5-13.5V231.5l48.5,48.5
			C310.4,285.3,318.9,285.3,324.2,280z"/>
	</g>
</g>
<g>
</g>
<g>
</g>
<g>
</g>
<g>
</g>
<g>
</g>
<g>
</g>
<g>
</g>
<g>
</g>
<g>
</g>
<g>
</g>
<g>
</g>
<g>
</g>
<g>
</g>
<g>
</g>
<g>
</g>
</symbol><symbol id="icon-upload" viewBox="0 0 471.2 471.2">
<g>
	<g>
		<path d="M457.7,230.15c-7.5,0-13.5,6-13.5,13.5v122.8c0,33.4-27.2,60.5-60.5,60.5H87.5c-33.4,0-60.5-27.2-60.5-60.5v-124.8
			c0-7.5-6-13.5-13.5-13.5s-13.5,6-13.5,13.5v124.8c0,48.3,39.3,87.5,87.5,87.5h296.2c48.3,0,87.5-39.3,87.5-87.5v-122.8
			C471.2,236.25,465.2,230.15,457.7,230.15z"/>
		<path d="M159.3,126.15l62.8-62.8v273.9c0,7.5,6,13.5,13.5,13.5s13.5-6,13.5-13.5V63.35l62.8,62.8c2.6,2.6,6.1,4,9.5,4
			c3.5,0,6.9-1.3,9.5-4c5.3-5.3,5.3-13.8,0-19.1l-85.8-85.8c-2.5-2.5-6-4-9.5-4c-3.6,0-7,1.4-9.5,4l-85.8,85.8
			c-5.3,5.3-5.3,13.8,0,19.1C145.5,131.35,154.1,131.35,159.3,126.15z"/>
	</g>
</g>
<g>
</g>
<g>
</g>
<g>
</g>
<g>
</g>
<g>
</g>
<g>
</g>
<g>
</g>
<g>
</g>
<g>
</g>
<g>
</g>
<g>
</g>
<g>
</g>
<g>
</g>
<g>
</g>
<g>
</g>
</symbol><symbol id="icon-user" viewBox="0 0 482.9 482.9">
<g>
	<g>
		<path d="M239.7,260.2c0.5,0,1,0,1.6,0c0.2,0,0.4,0,0.6,0c0.3,0,0.7,0,1,0c29.3-0.5,53-10.8,70.5-30.5
			c38.5-43.4,32.1-117.8,31.4-124.9c-2.5-53.3-27.7-78.8-48.5-90.7C280.8,5.2,262.7,0.4,242.5,0h-0.7c-0.1,0-0.3,0-0.4,0h-0.6
			c-11.1,0-32.9,1.8-53.8,13.7c-21,11.9-46.6,37.4-49.1,91.1c-0.7,7.1-7.1,81.5,31.4,124.9C186.7,249.4,210.4,259.7,239.7,260.2z
			 M164.6,107.3c0-0.3,0.1-0.6,0.1-0.8c3.3-71.7,54.2-79.4,76-79.4h0.4c0.2,0,0.5,0,0.8,0c27,0.6,72.9,11.6,76,79.4
			c0,0.3,0,0.6,0.1,0.8c0.1,0.7,7.1,68.7-24.7,104.5c-12.6,14.2-29.4,21.2-51.5,21.4c-0.2,0-0.3,0-0.5,0l0,0c-0.2,0-0.3,0-0.5,0
			c-22-0.2-38.9-7.2-51.4-21.4C157.7,176.2,164.5,107.9,164.6,107.3z"/>
		<path d="M446.8,383.6c0-0.1,0-0.2,0-0.3c0-0.8-0.1-1.6-0.1-2.5c-0.6-19.8-1.9-66.1-45.3-80.9c-0.3-0.1-0.7-0.2-1-0.3
			c-45.1-11.5-82.6-37.5-83-37.8c-6.1-4.3-14.5-2.8-18.8,3.3c-4.3,6.1-2.8,14.5,3.3,18.8c1.7,1.2,41.5,28.9,91.3,41.7
			c23.3,8.3,25.9,33.2,26.6,56c0,0.9,0,1.7,0.1,2.5c0.1,9-0.5,22.9-2.1,30.9c-16.2,9.2-79.7,41-176.3,41
			c-96.2,0-160.1-31.9-176.4-41.1c-1.6-8-2.3-21.9-2.1-30.9c0-0.8,0.1-1.6,0.1-2.5c0.7-22.8,3.3-47.7,26.6-56
			c49.8-12.8,89.6-40.6,91.3-41.7c6.1-4.3,7.6-12.7,3.3-18.8c-4.3-6.1-12.7-7.6-18.8-3.3c-0.4,0.3-37.7,26.3-83,37.8
			c-0.4,0.1-0.7,0.2-1,0.3c-43.4,14.9-44.7,61.2-45.3,80.9c0,0.9,0,1.7-0.1,2.5c0,0.1,0,0.2,0,0.3c-0.1,5.2-0.2,31.9,5.1,45.3
			c1,2.6,2.8,4.8,5.2,6.3c3,2,74.9,47.8,195.2,47.8s192.2-45.9,195.2-47.8c2.3-1.5,4.2-3.7,5.2-6.3
			C447,415.5,446.9,388.8,446.8,383.6z"/>
	</g>
</g>
<g>
</g>
<g>
</g>
<g>
</g>
<g>
</g>
<g>
</g>
<g>
</g>
<g>
</g>
<g>
</g>
<g>
</g>
<g>
</g>
<g>
</g>
<g>
</g>
<g>
</g>
<g>
</g>
<g>
</g>
</symbol></svg>