<svg xmlns="http://www.w3.org/2000/svg">


<style type="text/css">
    path:not(.svg-nocolor){fill:currentColor}
    use:not(.svg-nocolor):visited{color:currentColor}
    use:not(.svg-nocolor):hover{color:currentColor}
    use:not(.svg-nocolor):active{color:currentColor}
</style>


<defs>
<g id="feather_0_Layer0_0_FILL">
<path fill="#FFFFFF" stroke="none" d="
M 327.65 73.2
Q 343.65 53 352.2 33.4 328.9 47.2 317 54.75 307.05 61.05 303.9 63.05 303.95 62.95 319.45 44.85 334.95 26.7 353.95 6.95 372.95 -12.85 297.5 23.9 222 60.6 185.2 95.9 205.45 56.95 201.45 58.7 197.4 60.4 181.65 72.7 165.85 85 154.45 97.75 143 110.45 132 121.15 128.2 124.2 130.65 112.25 133.1 100.2 137.65 87.1 142.2 74 131.55 85.95 120.85 97.9 105.1 121.1 95.75 134.85 86.4 144.8 86.7 139.65 88.3 122.05 89.9 104.4 78.65 131.95 67.4 159.5 61.05 174.55 55.05 188.75 51.1 202.35 47 216.4 47 223.3
L 47 234.95
Q 52.8 229.95 67 218.8 84.4 205 90 201.4
L 239.3 100.4
Q 115.15 195.6 85.35 217.65 65.7 232.1 47 245.6 37.25 252.65 27.75 259.45 0 279.2 0 285.45 0 286.4 0.25 287.65
L 2.5 287.9
Q 4.65 287.9 12.85 283.65 24.6 277.55 39.65 266.5 60.75 251 72.4 246.35 75.8 245 82.9 242.9 90.3 240.7 110.65 233.9 130.95 227.05 161.2 214.75 191.45 202.45 198 195.4 181.5 195.9 179.5 195.9 178.55 195.9 174.25 196.1 169.3 196.35 165.45 196.6 183.35 188.3 217.15 175.45 275.85 152.4 267.35 152.25 258.8 152.1 245.25 153.65 231.65 155.15 226.2 153.45 237.05 148.1 273.75 130.55 329.7 104.3 317.35 105.6 305 106.9 302.5 106.9 300.4 106.9 295.1 107.4 289.5 107.9 287.95 107.95 311.65 93.4 327.65 73.2 Z"/>
</g>

<g id="logo_0_Layer0_0_FILL">
<path fill="#FFFFFF" stroke="none" d="
M 4.7 1.15
L 0 1.15 0 68.85 32.1 68.85 32.1 64.6 4.7 64.6 4.7 1.15
M 76.65 1.15
L 44.7 1.15 44.7 68.85 78.2 68.85 78.2 64.6 49.4 64.6 49.4 36.8 74.7 36.8 74.7 32.55 49.4 32.55 49.4 5.45 76.65 5.45 76.65 1.15
M 141.55 3.6
Q 133.1 0 124.1 0 108.55 0 99.25 10.3 89.95 20.6 89.95 35.95 89.95 51.2 98.55 60.6 107.2 70 121.15 70 132.4 70 142.95 64.1
L 142.95 35.2 122.1 35.2 122.1 39.45 138.25 39.45 138.25 61.75
Q 131.3 65.7 122.05 65.7 109.55 65.7 102.2 57.65 94.8 49.5 94.8 35.25 94.8 21.7 102.7 13 110.5 4.25 123.4 4.25 132.3 4.25 141.55 8.7
L 141.55 3.6
M 190.7 5.45
L 190.7 1.15 158.75 1.15 158.75 68.85 192.25 68.85 192.25 64.6 163.45 64.6 163.45 36.8 188.75 36.8 188.75 32.55 163.45 32.55 163.45 5.45 190.7 5.45
M 259.25 1.15
L 254.5 1.15 254.5 54.05
Q 254.5 56.4 254.75 59.7
L 254.5 59.7
Q 252.95 57.15 251.6 55.4
L 211.2 1.15 207.55 1.15 207.55 68.85 212.3 68.85 212.3 12.85
Q 212.3 11.1 212.2 9.85
L 212.4 9.85 213 10.8
Q 213.95 12.45 215.2 14.1
L 255.9 68.85 259.25 68.85 259.25 1.15
M 319.8 9.55
Q 310.95 1.15 293.9 1.15
L 276.8 1.15 276.8 68.85 292.9 68.85
Q 309.65 68.85 319.2 59.2 328.7 49.5 328.7 34.05 328.7 17.95 319.8 9.55
M 293.2 5.45
Q 323.75 5.45 323.75 34.25 323.75 48.95 315.6 56.8 307.45 64.6 292.25 64.6
L 281.5 64.6 281.5 5.45 293.2 5.45
M 336.65 68.85
L 341.85 68.85 349.65 47.8 379.3 47.8 387.15 68.85 392.45 68.85 366.9 1.15 362.45 1.15 336.65 68.85
M 365.3 9.4
Q 365.65 10.75 366.15 12.2
L 377.7 43.5 351.35 43.5 362.85 12.1
Q 363.6 10.15 364.4 7.05
L 364.6 7.05
Q 364.95 8.2 365.3 9.4
M 442.4 18.75
Q 442.4 10.8 437.25 6 432.05 1.15 423 1.15
L 404 1.15 404 68.85 408.75 68.85 408.75 38.65 417.25 38.65
Q 421.45 38.65 424.3 40.8 427.1 42.85 429.9 49
L 439 68.85 444.35 68.85 434.2 47.25
Q 430.35 39.1 426.3 37.5
L 426.3 37.3
Q 433.9 35.9 438.15 31 442.4 26.05 442.4 18.75
M 433.4 9.1
Q 437.55 12.75 437.55 19.25 437.55 26.3 432.95 30.35 428.35 34.4 420.55 34.4
L 408.75 34.4 408.75 5.45 421.5 5.45
Q 429.25 5.45 433.4 9.1
M 500 1.15
L 494.9 1.15 478.25 33.85
Q 476.55 37 475.9 38.75
L 475.7 38.75
Q 474.4 35.45 473.55 33.75
L 457.65 1.15 452.35 1.15 473.25 43.2 473.25 68.85 477.95 68.85 477.95 43.1 500 1.15 Z"/>
</g>
</defs><symbol id="icon-feather" viewBox="0 0 360 290">


<g transform="matrix( 1, 0, 0, 1, 1.15,1.5) ">
<g transform="matrix( 1, 0, 0, 1, 0,0) ">
<use xlink:href="#feather_0_Layer0_0_FILL"/>
</g>
</g>
</symbol><symbol id="logo" viewBox="0 0 500 70">


<g transform="matrix( 1, 0, 0, 1, 0,0.45) ">
<g transform="matrix( 1, 0, 0, 1, 0,0) ">
<use xlink:href="#logo_0_Layer0_0_FILL"/>
</g>
</g>
</symbol></svg>